<?xml version="1.0" encoding="UTF-8"?>
<svg class="css-ze2te4 css-qd6ojx" viewBox="0 0 63.373 47.818"
  xmlns="http://www.w3.org/2000/svg">
  <g class="css-1mun45u" transform="translate(-2.9421 -13.974) scale(.70414)">
    <switch xmlns="http://www.w3.org/2000/svg">
      <g>
        <path d="m78.179 38.351m0.895 4.105c-0.073 4.205-0.368 10.322-1.516 11.721-0.278 0.338-0.95 0.841-4.026 2.211-8.069 3.59-26.506 10.407-26.694 10.476-0.198 0.073-0.415 0.067-0.615-6e-3l-28.52-10.753c-0.4-0.151-0.632-0.569-0.563-0.99l1.939-10.207 1.69 0.576-1.756 9.234 27.521 10.376c2.458-0.912 18.835-7.006 26.278-10.321 2.849-1.268 3.334-1.665 3.383-1.711 0.54-0.66 0.907-4.365 1.053-8.582l1.826-2.024z"/>
        <path d="m48.715 55.491c-3.734 0.364-42.673-13.956-44.335-16.299-0.19-0.277-0.253-0.614-0.158-0.952 0.155-0.573 0.446-1.646 10.624-6.177 11.397-5.075 30.154-12.177 33.019-12.217 3.191-0.043 41.563 9.345 45.767 13.676 0.378 0.398 0.562 0.812 0.546 1.235-0.037 0.812-0.104 2.33-14.938 8.934v5e-3c-12.252 5.451-28.398 11.589-30.525 11.795zm-0.826-33.88c-2.139 0.03-19.843 6.509-32.32 12.063-6.43 2.862-8.604 4.213-9.329 4.787 4.696 2.856 39.571 15.525 42.295 15.28 1.752-0.174 17.537-6.113 29.99-11.662 11.181-4.982 13.384-6.833 13.82-7.372-2.743-3.202-40.592-13.15-44.456-13.096z"/>
        <path d="m48.594 36.048c0.064-0.558 0.555-0.954 1.109-0.895 0.22 0.02 5.506 0.602 11.151 3.399 7.571 3.753 12.102 9.717 13.086 17.243 1.025 7.862 3.854 15.432 6.674 21.073 3.271 4.659 7.866 5.373 7.941 5.378 0.559 0.076 0.938 0.582 0.871 1.136-0.053 0.363-0.279 0.652-0.6 0.788-0.165 0.074-0.348 0.104-0.542 0.077-0.13-0.02-2.086-0.306-4.44-1.691 1.095 1.673 2.053 2.865 2.727 3.413 0.433 0.357 0.496 0.991 0.14 1.424-0.096 0.12-0.228 0.217-0.373 0.276-0.327 0.152-0.742 0.106-1.036-0.144-0.839-0.681-2.039-2.175-3.396-4.279 0.284 2.19 0.021 3.134-0.033 3.296-0.084 0.272-0.289 0.483-0.54 0.591-0.211 0.093-0.457 0.115-0.696 0.041-0.528-0.154-0.823-0.714-0.682-1.237 0-0.026 0.582-2.362-1.739-9.089-0.051-0.137-0.062-0.277-0.054-0.409-2.687-5.646-5.229-12.843-6.219-20.379-2.17-16.553-22.251-18.879-22.448-18.901-0.56-0.063-0.959-0.561-0.901-1.111z"/>
        <path d="m57.566 34.007c-0.118-0.31-0.24-0.617-0.388-0.937l5.809-2.582 2.506-1.12c0.502 0.143 1.008 0.288 1.516 0.434l-3.609 1.604-5.834 2.601z"/>
        <path d="m56.727 32.102c-0.147-0.3-0.304-0.598-0.459-0.898l5.874-2.619 0.222-0.092c0.493 0.138 1 0.279 1.515 0.424l-1.325 0.59-5.827 2.595z"/>
        <path d="m55.24 29.388 3.965-1.773c0.49 0.14 1.01 0.278 1.528 0.424l-4.985 2.224c-0.172-0.296-0.339-0.59-0.508-0.875z"/>
        <path d="m54.122 27.608 1.909-0.853c0.479 0.126 0.99 0.268 1.545 0.417l-2.901 1.292c-0.194-0.296-0.371-0.581-0.553-0.856z"/>
        <path d="m52.982 25.928c0.012 3e-3 0.017 7e-3 0.064 0.017 0.19 0.052 0.663 0.178 1.352 0.364l-0.887 0.396c-0.182-0.279-0.366-0.542-0.529-0.777z"/>
        <path d="m51.15 48.248c0.377-0.405 0.974-1.043 1.644-1.837l14.423-6.429 13.533-6.022c0.497 0.175 0.965 0.336 1.378 0.487l-14.494 6.459-16.484 7.342z"/>
        <path d="m54.303 44.566c0.405-0.526 0.82-1.078 1.212-1.646l10.861-4.84 11.42-5.087c0.501 0.161 0.988 0.312 1.445 0.464l-12.456 5.545-12.482 5.564z"/>
        <path d="m56.584 41.271c0.287-0.487 0.549-0.971 0.782-1.449l8.156-3.636 9.254-4.118c0.497 0.153 0.991 0.3 1.469 0.446l-10.308 4.594-9.353 4.163z"/>
        <path d="m57.932 38.395c0.133-0.421 0.224-0.833 0.259-1.216l6.491-2.893 7.022-3.131c0.507 0.146 1.004 0.292 1.498 0.437l-15.27 6.803z"/>
        <path d="m58.136 36.026c-0.033-0.161-0.062-0.332-0.106-0.501-0.036-0.165-0.083-0.328-0.124-0.498l5.931-2.639 4.778-2.134c0.246 0.076 0.497 0.149 0.745 0.222 0.259 0.07 0.51 0.144 0.762 0.214l-5.877 2.616-6.109 2.72z"/>
        <path d="m83.518 34.999c0.726 0.325 1.049 0.564 0.812 0.676-3.346 1.616-9.703 4.192-16.065 6.643-2.661 1.024-5.317 2.026-7.758 2.934l7.561-3.374 15.45-6.879z"/>
      </g>
    </switch>
  </g>
</svg>
