<?xml version="1.0" encoding="UTF-8" standalone="no"?>
<svg xmlns:dc="http://purl.org/dc/elements/1.1/"
   xmlns:cc="http://creativecommons.org/ns#"
   xmlns:rdf="http://www.w3.org/1999/02/22-rdf-syntax-ns#"
   xmlns:svg="http://www.w3.org/2000/svg"
   xmlns="http://www.w3.org/2000/svg" id="svg13" version="1.1" height="160" width="160">
   <metadata id="metadata19">
      <rdf:RDF>
         <cc:Work rdf:about="">
            <dc:format>image/svg+xml</dc:format>
            <dc:type rdf:resource="http://purl.org/dc/dcmitype/StillImage" />
         </cc:Work>
      </rdf:RDF>
   </metadata>
   <defs id="defs17" />
   <g id="g5">
      <title id="title2">background</title>
      <path id="canvas_background" d="M -1,-1 H 161 V 161 H -1 Z" style="fill:none" />
   </g>
   <g id="g11">
      <title id="title7">Layer 1</title>
      <g id="svg_1">
         <path style="fill:#f7f7f7" d="m 52.549994,4.9499971 c -0.2,0 -0.43,0 -0.49,0.01 -0.07,0.01 -8.63,2.69 -19.02,5.9599999 -13.3,4.18 -18.98,5.98 -19.2,6.09 -0.21,0.1 -0.41,0.25 -0.59,0.43 -0.18,0.17 -0.33,0.38 -0.41,0.55 -0.07,0.15 -0.16,0.37 -0.19,0.49 -0.04,0.13 -0.07,0.39 -0.07,0.59 0,0.19 0.03,0.46 0.07,0.59 0.03,0.13 0.12,0.36 0.19,0.5 0.08,0.16 0.24,0.38 0.43,0.56 0.16,0.16 0.4,0.35 0.52,0.41 0.13,0.07 0.43,0.18 0.67,0.25 l 0.44,0.13 0.01,2.41 0.01,2.41 -0.18,0.07 c -0.1,0.03 -0.34,0.15 -0.55,0.25 -0.21,0.11 -0.53,0.3 -0.71,0.42 -0.18,0.12 -0.49,0.36 -0.69,0.52 -0.19,0.16 -0.49,0.47 -0.67,0.67 -0.19,0.21 -0.45,0.54 -0.58,0.75 -0.14,0.2 -0.35,0.55 -0.46,0.77 -0.11,0.22 -0.25,0.56 -0.33,0.77 -0.07,0.2 -0.16,0.51 -0.21,0.69 -0.04,0.17 -0.09,0.37 -0.1,0.43 -0.02,0.1 -0.04,0.11 -0.14,0.09 -0.06,-0.02 -0.6899997,-0.21 -1.4099997,-0.44 -0.71,-0.22 -1.87,-0.6 -2.58,-0.84 -0.71,-0.24 -1.59,-0.55 -1.96,-0.68 l -0.67,-0.24 h -0.44 c -0.36,0.01 -0.51,0.03 -0.77,0.12 -0.17,0.06 -0.41,0.17 -0.53,0.24 -0.12,0.08 -0.32,0.24 -0.44,0.36 -0.12,0.13 -0.28,0.35 -0.36,0.5 -0.07,0.15 -0.17000002,0.38 -0.21000002,0.5 -0.04,0.16 -0.06,0.4 -0.06,0.82 0,0.33 0.03,0.95 0.06,1.38 0.03,0.43 0.11000002,1.25 0.17000002,1.81 0.06,0.56 0.17,1.52 0.25,2.12 0.08,0.61 0.21,1.51 0.29,2 0.08,0.48 0.22,1.27 0.31,1.75 0.1,0.47 0.25,1.18 0.34,1.57 0.09,0.39 0.24,0.98 0.33,1.31 0.09,0.34 0.27,0.93 0.4,1.32 0.13,0.39 0.34,0.97 0.46,1.29 0.13,0.32 0.35,0.82 0.5,1.11 0.14,0.28 0.39,0.71 0.55,0.95 0.15,0.25 0.43,0.62 0.6,0.83 0.18,0.21 0.43,0.47 0.56,0.58 0.12,0.1 0.36,0.26 0.53,0.34 l 0.31,0.16 -0.23,0.27 c -0.13,0.14 -0.45,0.56 -0.72,0.91 -0.26,0.36 -0.63,0.86 -0.8,1.13 -0.18,0.26 -0.47,0.73 -0.66,1.04 -0.18,0.31 -0.51,0.91 -0.73,1.33 -0.21,0.43 -0.51,1.05 -0.65,1.38 -0.14,0.33 -0.35,0.85 -0.46,1.15 -0.11,0.3 -0.28,0.82 -0.39,1.17 -0.11,0.34 -0.28,0.96 -0.38,1.37 -0.1,0.41 -0.25,1.13 -0.33,1.6 -0.08,0.47 -0.17,1.14 -0.21000002,1.49 -0.04,0.38 -0.08,1.15 -0.09,2.01 -0.01,0.88 -0.01,1.63 0.03,2.06 0.02,0.38 0.08,0.98 0.13000002,1.35 0.04,0.36 0.14,0.96 0.2,1.32 0.07,0.36 0.21,0.99 0.32,1.42 0.1,0.42 0.29,1.08 0.42,1.47 0.13,0.39 0.36,1.05 0.53,1.46 0.16,0.41 0.51,1.19 0.78,1.73 0.27,0.54 0.65,1.25 0.85,1.58 0.2,0.34 0.5,0.81 0.66,1.05 0.16,0.24 0.47,0.68 0.7,0.97 0.22,0.3 0.6,0.79 0.85,1.09 0.25,0.3 0.87,0.97 1.39,1.48 0.52,0.52 1.19,1.15 1.49,1.39 0.3,0.25 0.76,0.62 1.0399997,0.83 0.27,0.21 0.79,0.57 1.15,0.8 0.35,0.24 0.89,0.58 1.2,0.75 0.31,0.18 0.87,0.48 1.26,0.67 0.38,0.19 0.95,0.46 1.25,0.59 0.31,0.13 0.78,0.31 1.04,0.41 0.26,0.1 0.72,0.26 1.02,0.35 0.3,0.1 0.86,0.26 1.25,0.36 0.39,0.1 1,0.24 1.36,0.31 0.36,0.07 1,0.17 1.44,0.23 0.43,0.06 1.05,0.12 1.37,0.15 0.32,0.02 1.09,0.04 1.69,0.04 0.61,0 1.37,-0.02 1.69,-0.04 0.32,-0.03 0.87,-0.08 1.23,-0.13 0.36,-0.04 0.92,-0.13 1.25,-0.18 0.34,-0.06 0.99,-0.2 1.46,-0.32 0.47,-0.12 1.21,-0.33 1.65,-0.47 0.43,-0.15 1.09,-0.39 1.46,-0.53 0.37,-0.15 1.11,-0.49 1.65,-0.75 0.53,-0.27 1.25,-0.65 1.58,-0.86 0.33,-0.2 0.83,-0.51 1.1,-0.69 0.27,-0.19 0.74,-0.51 1.02,-0.73 0.29,-0.22 0.74,-0.58 1.01,-0.8 0.26,-0.22 0.91,-0.83 1.44,-1.36 0.53,-0.53 1.15,-1.19 1.38,-1.46 0.24,-0.28 0.61,-0.75 0.83,-1.05 0.22,-0.29 0.55,-0.75 0.73,-1.01 0.17,-0.27 0.48,-0.75 0.68,-1.09 0.2,-0.33 0.59,-1.04 0.85,-1.58 0.27,-0.54 0.62,-1.32 0.79,-1.73 0.16,-0.41 0.4,-1.07 0.52,-1.46 0.13,-0.39 0.32,-1.05 0.42,-1.47 0.11,-0.43 0.25,-1.06 0.32,-1.42 0.07,-0.36 0.16,-0.97 0.21,-1.34 0.04,-0.38 0.1,-0.95 0.13,-1.27 0.02,-0.32 0.04,-1.08 0.04,-1.7 0,-0.61 -0.02,-1.37 -0.04,-1.69 -0.03,-0.32 -0.08,-0.81 -0.11,-1.1 -0.03,-0.29 -0.12,-0.85 -0.19,-1.25 -0.07,-0.4 -0.21,-1.07 -0.31,-1.48 -0.1,-0.41 -0.27,-1.03 -0.37,-1.37 -0.11,-0.34 -0.29,-0.87 -0.4,-1.17 -0.11,-0.3 -0.31,-0.8 -0.44,-1.11 -0.13,-0.31 -0.42,-0.93 -0.65,-1.37 -0.22,-0.45 -0.56,-1.07 -0.75,-1.38 -0.18,-0.31 -0.48,-0.78 -0.65,-1.04 -0.18,-0.26 -0.54,-0.77 -0.81,-1.13 -0.27,-0.35 -0.68,-0.87 -0.91,-1.14 -0.24,-0.28 -0.82,-0.89 -1.29,-1.36 -0.47,-0.47 -1.1,-1.06 -1.4,-1.31 -0.3,-0.24 -0.76,-0.61 -1.02,-0.81 -0.27,-0.2 -0.76,-0.56 -1.11,-0.79 -0.34,-0.23 -0.89,-0.57 -1.21,-0.76 -0.32,-0.18 -0.87,-0.48 -1.23,-0.66 -0.35,-0.18 -0.93,-0.45 -1.27,-0.6 -0.34,-0.15 -0.91,-0.37 -1.25,-0.5 -0.34,-0.13 -0.88,-0.31 -1.19,-0.4 -0.31,-0.09 -0.91,-0.26 -1.33,-0.36 -0.43,-0.1 -1.1,-0.24 -1.51,-0.31 -0.4,-0.07 -0.98,-0.15 -1.29,-0.19 -0.31,-0.03 -0.82,-0.08 -1.14,-0.1 -0.33,-0.03 -1.02,-0.05 -1.56,-0.05 -0.53,0 -1.25,0.02 -1.59,0.05 -0.33,0.02 -0.92,0.08 -1.3,0.12 -0.37,0.05 -0.99,0.14 -1.36,0.21 -0.37,0.07 -0.94,0.19 -1.27,0.27 -0.33,0.08 -0.73,0.19 -0.89,0.23 -0.16,0.05 -0.58,0.18 -0.94,0.3 -0.35,0.11 -0.92,0.32 -1.25,0.45 -0.33,0.13 -0.82,0.34 -1.08,0.45 -0.27,0.12 -0.74,0.36 -1.07,0.53 -0.32,0.16 -0.77,0.41 -1,0.54 -0.23,0.13 -0.71,0.44 -1.08,0.68 -0.37,0.24 -0.92,0.63 -1.23,0.86 -0.2999997,0.23 -0.5999997,0.46 -0.6499997,0.5 l -0.1,0.07 -0.03,-0.07 c -0.01,-0.04 -0.08,-0.19 -0.14,-0.33 -0.07,-0.14 -0.23,-0.38 -0.36,-0.53 -0.13,-0.14 -0.32,-0.39 -0.42,-0.54 -0.1,-0.16 -0.28,-0.49 -0.4,-0.73 -0.13,-0.25 -0.3,-0.64 -0.39,-0.87 -0.09,-0.23 -0.23,-0.61 -0.31,-0.85 -0.09,-0.24 -0.23,-0.72 -0.32,-1.07 -0.1,-0.34 -0.24,-0.9 -0.32,-1.25 -0.07,-0.34 -0.2,-0.92 -0.27,-1.28 -0.07,-0.36 -0.19,-1.04 -0.27,-1.52 -0.08,-0.48 -0.17,-1.12 -0.21,-1.43 -0.03,-0.31 -0.09,-0.91 -0.12,-1.33 -0.03,-0.43 -0.06,-0.78 -0.05,-0.78 0,0 0.43,0.15 0.96,0.34 0.53,0.2 1.35,0.49 1.82,0.65 0.47,0.16 1.26,0.41 1.7699997,0.56 0.5,0.14 1.22,0.33 1.58,0.41 0.37,0.08 0.96,0.19 1.32,0.25 0.35,0.06 0.96,0.14 1.35,0.19 0.39,0.05 1.08,0.11 1.54,0.15 0.46,0.04 1.42,0.08 2.15,0.1 0.75,0.02 1.95,0.02 2.8,0 0.81,-0.02 1.84,-0.06 2.29,-0.08 0.45,-0.03 1.96,-0.12 3.36,-0.21 1.4,-0.09 2.96,-0.18 3.48,-0.21 0.51,-0.03 1.79,-0.06 2.83,-0.06 1.15,0 2.15,0.02 2.53,0.06 0.34,0.02 0.8,0.07 1.02,0.09 0.22,0.02 0.67,0.08 1,0.13 0.33,0.04 0.88,0.14 1.21,0.2 0.33,0.07 0.81,0.19 1.06,0.25 0.25,0.07 0.72,0.23 1.04,0.36 0.32,0.13 0.84,0.35 1.17,0.5 0.32,0.15 0.96,0.46 1.42,0.7 0.46,0.24 1.14,0.6 1.51,0.81 0.37,0.21 1.03,0.59 1.46,0.85 0.43,0.25 1.17,0.71 1.64,1.01 0.47,0.29 1.16,0.74 1.54,1 0.37,0.25 0.78,0.5 0.89,0.55 0.12,0.05 0.32,0.11 0.45,0.14 0.15,0.03 0.39,0.05 0.65,0.03 0.26,-0.01 0.48,-0.05 0.62,-0.1 0.12,-0.04 0.7,-0.35 1.29,-0.68 0.6,-0.33 1.49,-0.81 1.98,-1.07 0.49,-0.26 1.44,-0.74 2.11,-1.07 0.66,-0.33 1.56,-0.77 2,-0.97 0.43,-0.2 1.07,-0.48 1.41,-0.63 0.35,-0.15 1,-0.42 1.46,-0.6 0.46,-0.18 1.16,-0.44 1.57,-0.58 0.4,-0.13 0.95,-0.3 1.23,-0.37 0.27,-0.07 0.71,-0.16 0.96,-0.21 0.25,-0.05 0.65,-0.11 0.88,-0.15 0.23,-0.03 0.68,-0.09 1,-0.12 0.32,-0.04 0.9,-0.09 1.29,-0.12 0.4,-0.03 1.46,-0.05 2.44,-0.04 0.95,0 2.16,0.02 2.69,0.05 0.52,0.02 1.42,0.07 1.98,0.11 0.56,0.03 1.59,0.1 2.29,0.14 0.7,0.05 1.78,0.11 2.4,0.15 0.62,0.04 2.1,0.08 3.29,0.09 1.39,0.01 2.51,0.01 3.11,-0.03 0.51,-0.02 1.35,-0.08 1.85,-0.13 0.51,-0.04 1.25,-0.13 1.65,-0.19 0.4,-0.05 1.06,-0.17 1.46,-0.25 0.39,-0.08 0.95,-0.2 1.23,-0.27 0.27,-0.07 0.86,-0.23 1.29,-0.35 0.44,-0.13 1.5,-0.47 2.35,-0.75 0.86,-0.29 1.57,-0.51 1.59,-0.5 0.01,0.02 0.02,0.43 0.02,0.91 0,0.52 -0.03,1.15 -0.07,1.51 -0.04,0.34 -0.1,0.84 -0.14,1.1 -0.03,0.27 -0.12,0.87 -0.2,1.34 -0.08,0.47 -0.23,1.19 -0.32,1.59 -0.09,0.41 -0.26,1.06 -0.37,1.46 -0.13,0.43 -0.22,0.85 -0.23,1.03 -0.02,0.21 -0.01,0.42 0.04,0.62 0.03,0.17 0.12,0.43 0.2,0.59 0.09,0.18 0.24,0.38 0.43,0.58 0.22,0.22 0.37,0.34 0.61,0.45 0.17,0.08 0.44,0.17 0.6,0.2 0.16,0.04 0.359996,0.06 0.459996,0.06 0.09,0 0.29,-0.02 0.45,-0.06 0.17,-0.03 0.44,-0.12 0.61,-0.21 0.21,-0.1 0.39,-0.24 0.58,-0.43 0.15,-0.15 0.33,-0.39 0.41,-0.52 0.07,-0.14 0.22,-0.55 0.32,-0.92 0.11,-0.37 0.27,-0.97 0.36,-1.34 0.09,-0.36 0.22,-0.99 0.3,-1.39 0.08,-0.4 0.2,-1.04 0.26,-1.42 0.06,-0.38 0.15,-1.07 0.21,-1.54 0.05,-0.47 0.13,-1.18 0.16,-1.57 0.04,-0.39 0.09,-1.06 0.12,-1.5 0.02,-0.43 0.05,-1.53 0.05,-2.44 v -1.64 l -0.07,-0.25 c -0.05,-0.14 -0.13,-0.36 -0.2,-0.49 -0.07,-0.13 -0.22,-0.34 -0.34,-0.47 -0.12,-0.14 -0.33,-0.32 -0.46,-0.4 -0.14,-0.09 -0.37,-0.2 -0.52,-0.26 -0.23,-0.07 -0.37,-0.09 -0.74,-0.09 h -0.46 l -1.499996,0.48 c -0.83,0.27 -1.91,0.62 -2.4,0.77 -0.49,0.15 -1.38,0.42 -1.98,0.59 -0.6,0.17 -1.52,0.42 -2.05,0.56 -0.54,0.13 -1.3,0.31 -1.69,0.39 -0.4,0.08 -1.03,0.18 -1.41,0.23 -0.38,0.04 -0.97,0.1 -1.31,0.13 -0.4,0.04 -1.38,0.06 -2.71,0.06 -1.24,0 -2.48,-0.03 -3.05,-0.06 -0.53,-0.03 -1.89,-0.12 -3.04,-0.19 -1.14,-0.08 -2.08,-0.15 -2.09,-0.16 -0.01,-0.01 -0.18,-1.68 -0.39,-3.72 -0.2,-2.04 -0.36,-3.72 -0.34,-3.74 0.01,-0.01 3.04,-0.87 6.74,-1.91 4.95,-1.39 6.79,-1.92 7.02,-2.03 0.23,-0.11 0.4,-0.24 0.61,-0.45 0.22,-0.22 0.34,-0.38 0.45,-0.61 0.08,-0.17 0.17,-0.43 0.2,-0.57 0.03,-0.16 0.04,-0.42 0.03,-0.63 -0.02,-0.22 -0.06,-0.46 -0.12,-0.61 -0.05,-0.14 -0.18,-0.38 -0.28,-0.53 -0.1,-0.16 -0.27,-0.36 -0.38,-0.45 -0.11,-0.09 -0.32,-0.23 -0.47,-0.31 -0.18,-0.09 -6.27,-2.03 -18.34,-5.82 -9.95,-3.1299999 -18.46,-5.7999999 -18.93,-5.9499999 -0.73,-0.23 -0.92,-0.27 -1.24,-0.28 z m -0.06,4.8 h 0.01 c 0.03,0.01 6.6,2.0699999 14.61,4.5899999 8,2.51 14.57,4.58 14.59,4.59 0.02,0.01 -0.11,0.07 -0.29,0.12 -0.18,0.05 -1.91,0.54 -3.84,1.08 l -3.5,0.99 -0.58,-0.14 c -0.32,-0.07 -1.14,-0.25 -1.81,-0.4 -0.67,-0.14 -1.96,-0.41 -2.88,-0.6 -0.91,-0.18 -2.32,-0.45 -3.13,-0.6 -0.81,-0.15 -1.92,-0.35 -2.46,-0.44 -0.54,-0.09 -1.49,-0.24 -2.11,-0.33 -0.62,-0.09 -1.65,-0.23 -2.29,-0.31 -0.64,-0.08 -1.46,-0.17 -1.81,-0.21 -0.36,-0.04 -1,-0.09 -1.42,-0.13 -0.43,-0.03 -1.28,-0.08 -1.89,-0.11 -0.85,-0.03 -1.41,-0.03 -2.33,0 -0.67,0.03 -1.56,0.08 -1.99,0.11 -0.43,0.04 -1.14,0.1 -1.59,0.15 -0.45,0.04 -1.26,0.14 -1.81,0.21 -0.55,0.07 -1.45,0.19 -2.01,0.27 -0.55,0.08 -1.71,0.27 -2.58,0.41 -0.87,0.15 -2.24,0.39 -3.05,0.54 -0.8,0.16 -2.09,0.41 -2.87,0.57 -0.78,0.16 -2.06,0.44 -2.84,0.61 -0.78,0.18 -1.5,0.33 -1.6,0.36 l -0.19,0.04 -3.65,-1.04 c -2.01,-0.56 -3.73,-1.04 -3.83,-1.07 -0.09,-0.02 -0.17,-0.05 -0.17,-0.06 0,-0.02 0.17,-0.08 0.38,-0.15 0.21,-0.06 1.02,-0.31 1.79,-0.55 0.76,-0.24 1.62,-0.51 1.89,-0.6 0.28,-0.09 0.84,-0.26 1.25,-0.39 0.42,-0.13 5.97,-1.88 12.35,-3.88 6.37,-2.01 11.61,-3.6399999 11.65,-3.6299999 z m -0.18,12.7799999 h 0.02 c 0.6,0 1.4,0.02 1.77,0.04 0.36,0.02 0.88,0.06 1.14,0.08 0.27,0.03 0.91,0.09 1.44,0.15 0.53,0.06 1.43,0.17 2,0.25 0.58,0.08 1.67,0.25 2.43,0.38 0.76,0.12 1.91,0.32 2.54,0.43 0.64,0.12 2.05,0.39 3.12,0.61 1.08,0.21 2.73,0.56 3.67,0.77 0.94,0.21 1.81,0.4 1.93,0.42 0.18,0.04 0.22,0.06 0.22,0.14 0,0.05 0.15,1.54 0.33,3.32 l 0.32,3.23 -1.59,0.05 c -0.87,0.02 -1.86,0.07 -2.21,0.09 -0.34,0.03 -0.97,0.09 -1.4,0.13 -0.42,0.05 -1.07,0.13 -1.43,0.19 -0.37,0.06 -0.95,0.16 -1.3,0.23 -0.34,0.07 -0.9,0.2 -1.25,0.29 -0.34,0.09 -0.86,0.23 -1.14,0.33 -0.29,0.09 -0.72,0.23 -0.96,0.31 -0.24,0.09 -0.81,0.31 -1.27,0.49 -0.46,0.18 -1.23,0.51 -1.72,0.73 -0.49,0.21 -1.49,0.68 -2.23,1.04 -0.74,0.35 -1.86,0.91 -2.49,1.24 -0.64,0.33 -1.47,0.78 -1.86,1 l -0.72,0.39 -0.55,-0.36 c -0.3,-0.2 -0.7,-0.46 -0.9,-0.59 -0.19,-0.12 -0.75,-0.46 -1.24,-0.75 -0.49,-0.3 -1.21,-0.72 -1.6,-0.95 -0.4,-0.23 -1.03,-0.58 -1.41,-0.78 -0.37,-0.2 -0.95,-0.49 -1.27,-0.64 -0.32,-0.16 -0.85,-0.4 -1.17,-0.54 -0.32,-0.13 -0.82,-0.33 -1.11,-0.44 -0.29,-0.1 -0.81,-0.26 -1.14,-0.35 -0.34,-0.1 -0.91,-0.24 -1.27,-0.32 -0.36,-0.08 -0.98,-0.2 -1.38,-0.27 -0.4,-0.06 -1.06,-0.16 -1.46,-0.21 -0.4,-0.04 -1.08,-0.11 -1.5,-0.15 -0.43,-0.03 -1.52,-0.07 -2.45,-0.09 l -1.68,-0.02 0.02,-0.17 c 0.01,-0.1 0.17,-1.54 0.36,-3.22 0.18,-1.67 0.34,-3.1 0.35,-3.17 l 0.02,-0.13 1.64,-0.36 c 0.9,-0.2 2.12,-0.47 2.72,-0.59 0.6,-0.13 1.62,-0.33 2.27,-0.46 0.66,-0.13 1.7,-0.33 2.32,-0.44 0.62,-0.11 1.64,-0.29 2.27,-0.39 0.62,-0.11 1.66,-0.27 2.29,-0.36 0.63,-0.09 1.55,-0.21 2.05,-0.27 0.49,-0.06 1.21,-0.13 1.6,-0.17 0.39,-0.03 0.95,-0.08 1.23,-0.1 0.29,-0.01 1.02,-0.03 1.63,-0.04 z m -32.64,0.33 c 0.02,0 1.82,0.5 3.99,1.11 2.18,0.61 3.96,1.12 3.97,1.12 0.01,0.01 -0.17,1.7 -0.4,3.75 -0.23,2.06 -0.43,3.75 -0.44,3.76 -0.01,0.01 -0.56,0.06 -1.22,0.11 -0.66,0.05 -1.2,0.08 -1.21,0.07 0,-0.01 -0.03,-0.23 -0.06,-0.49 -0.03,-0.27 -0.08,-0.65 -0.13,-0.85 -0.04,-0.2 -0.13,-0.53 -0.21,-0.75 -0.07,-0.21 -0.21,-0.56 -0.31,-0.78 -0.1,-0.22 -0.33,-0.6 -0.5,-0.86 -0.16,-0.25 -0.43,-0.61 -0.6,-0.79 -0.16,-0.19 -0.44,-0.46 -0.61,-0.62 -0.18,-0.15 -0.49,-0.39 -0.68,-0.52 -0.2,-0.14 -0.49,-0.31 -0.64,-0.4 -0.16,-0.08 -0.44,-0.22 -0.63,-0.3 l -0.34,-0.14 -0.01,-1.71 c -0.01,-1.1 0,-1.71 0.03,-1.71 z m -2.37,7.72 c 0.12,0 0.34,0.01 0.48,0.04 0.13,0.02 0.4,0.12 0.58,0.21 0.24,0.11 0.42,0.24 0.59,0.41 0.14,0.14 0.31,0.37 0.4,0.53 0.08,0.16 0.18,0.4 0.21,0.54 0.04,0.14 0.07,0.36 0.07,0.49 v 0.24 h -1.12 c -0.61,-0.01 -1.4,-0.02 -1.75,-0.05 -0.35,-0.02 -0.88,-0.06 -1.18,-0.08 l -0.54,-0.05 v -0.18 c 0,-0.1 0.05,-0.33 0.1,-0.51 0.07,-0.21 0.18,-0.44 0.31,-0.62 0.11,-0.16 0.31,-0.37 0.43,-0.46 0.13,-0.1 0.35,-0.23 0.5,-0.3 0.16,-0.07 0.37,-0.15 0.48,-0.17 0.11,-0.02 0.31,-0.04 0.44,-0.04 z m 63.19,11.88 c -0.6,0.01 -1.3,0.03 -1.56,0.05 -0.27,0.02 -0.8,0.07 -1.19,0.12 -0.39,0.05 -1.01,0.14 -1.38,0.21 -0.37,0.07 -0.95,0.19 -1.28,0.27 -0.33,0.08 -0.73,0.18 -0.89,0.23 -0.16,0.05 -0.58,0.18 -0.94,0.29 -0.35,0.12 -0.91,0.32 -1.23,0.45 -0.32,0.12 -0.88,0.36 -1.24,0.53 -0.36,0.17 -0.97,0.48 -1.36,0.69 -0.39,0.21 -0.96,0.54 -1.27,0.74 -0.31,0.2 -0.79,0.51 -1.06,0.7 -0.27,0.19 -0.75,0.56 -1.08,0.81 -0.32,0.26 -0.8,0.67 -1.06,0.9 -0.26,0.23 -0.76,0.71 -1.1,1.06 -0.35,0.36 -0.82,0.87 -1.06,1.14 -0.24,0.28 -0.65,0.8 -0.92,1.15 -0.26,0.36 -0.63,0.86 -0.8,1.13 -0.18,0.26 -0.47,0.73 -0.66,1.04 -0.18,0.31 -0.51,0.91 -0.73,1.33 -0.21,0.43 -0.5,1.05 -0.65,1.38 -0.14,0.33 -0.35,0.85 -0.46,1.15 -0.11,0.3 -0.28,0.82 -0.39,1.17 -0.11,0.34 -0.28,0.96 -0.38,1.37 -0.1,0.41 -0.25,1.13 -0.33,1.6 -0.07,0.47 -0.17,1.14 -0.21,1.49 -0.04,0.38 -0.08,1.15 -0.09,2.01 -0.01,0.88 -0.01,1.63 0.03,2.06 0.02,0.38 0.08,0.98 0.13,1.35 0.05,0.36 0.14,0.96 0.21,1.32 0.06,0.36 0.2,0.99 0.31,1.42 0.11,0.42 0.3,1.08 0.42,1.47 0.13,0.39 0.36,1.05 0.53,1.46 0.16,0.41 0.51,1.19 0.78,1.73 0.27,0.54 0.65,1.25 0.85,1.58 0.2,0.34 0.5,0.81 0.66,1.05 0.16,0.24 0.48,0.68 0.7,0.97 0.22,0.3 0.61,0.79 0.85,1.09 0.25,0.3 0.88,0.97 1.4,1.48 0.51,0.52 1.18,1.15 1.48,1.39 0.3,0.25 0.77,0.62 1.04,0.83 0.28,0.21 0.79,0.57 1.15,0.8 0.35,0.24 0.9,0.58 1.2,0.75 0.31,0.18 0.87,0.48 1.26,0.67 0.38,0.19 0.95,0.46 1.25,0.59 0.31,0.13 0.78,0.31 1.04,0.41 0.26,0.1 0.73,0.26 1.02,0.35 0.3,0.1 0.86,0.26 1.25,0.36 0.39,0.1 1.01,0.24 1.36,0.31 0.36,0.07 1,0.17 1.44,0.23 0.43,0.06 1.05,0.12 1.37,0.15 0.33,0.02 1.09,0.04 1.69,0.04 0.61,0 1.37,-0.02 1.69,-0.04 0.32,-0.03 0.88,-0.08 1.23,-0.13 0.36,-0.04 0.92,-0.13 1.25,-0.18 0.34,-0.06 0.99,-0.2 1.46,-0.32 0.47,-0.12 1.21,-0.33 1.65,-0.47 0.43,-0.15 1.09,-0.39 1.46,-0.53 0.37,-0.15 1.11,-0.49 1.65,-0.75 0.54,-0.27 1.25,-0.65 1.58,-0.86 0.33,-0.2 0.83,-0.51 1.1,-0.69 0.28,-0.19 0.74,-0.51 1.03,-0.73 0.28,-0.22 0.73,-0.58 0.99,-0.8 0.26,-0.22 0.54,-0.45 0.61,-0.52 0.08,-0.07 0.16,-0.11 0.17,-0.1 0.01,0.01 0.15,0.53 0.31,1.16 0.16,0.63 0.37,1.56 0.48,2.06 0.1,0.51 0.25,1.32 0.33,1.82 0.08,0.49 0.2,1.28 0.26,1.75 0.05,0.47 0.13,1.15 0.16,1.52 0.03,0.37 0.09,1.01 0.12,1.44 0.03,0.45 0.05,1.58 0.05,2.69 0,1.11 -0.02,2.23 -0.05,2.67 -0.03,0.41 -0.09,1.06 -0.12,1.44 -0.03,0.370003 -0.1,0.990003 -0.14,1.370003 -0.05,0.38 -0.14,1 -0.19,1.38 -0.06,0.38 -0.17,1.04 -0.25,1.48 -0.08,0.43 -0.23,1.17 -0.34,1.63 -0.1,0.45 -0.26,1.12 -0.35,1.48 -0.1,0.35 -0.27,0.99 -0.4,1.41 -0.12,0.43 -0.36,1.19 -0.53,1.69 -0.17,0.51 -0.43,1.23 -0.57,1.61 -0.14,0.37 -0.38,0.97 -0.53,1.33 -0.15,0.36 -0.37,0.88 -0.5,1.17 -0.13,0.29 -0.45,0.97 -0.72,1.52 -0.27,0.55 -0.68,1.34 -0.91,1.76 -0.23,0.41 -0.59,1.05 -0.81,1.42 -0.23,0.37 -0.61,0.99 -0.85,1.37 -0.25,0.39 -0.67,1.02 -0.95,1.41 -0.27,0.39 -0.7,0.97 -0.94,1.3 -0.24,0.32 -0.62,0.81 -0.85,1.1 -0.23,0.29 -0.57,0.7 -0.75,0.92 -0.19,0.22 -0.49,0.56 -0.67,0.77 -0.18,0.21 -0.68,0.75 -1.12,1.21 -0.43,0.46 -1.17,1.21 -1.65,1.66 -0.47,0.44 -1.05,0.97 -1.27,1.17 -0.23,0.2 -0.69,0.59 -1.02,0.87 -0.34,0.28 -0.86,0.7 -1.16,0.94 -0.3,0.23 -0.86,0.64 -1.23,0.92 -0.38,0.27 -0.98,0.69 -1.34,0.93 -0.35,0.24 -0.97,0.64 -1.36,0.88 -0.4,0.25 -1.02,0.62 -1.39,0.84 -0.38,0.21 -1.06,0.59 -1.52,0.83 -0.46,0.24 -1.2,0.61 -1.65,0.82 -0.44,0.21 -1.2,0.56 -1.68,0.76 -0.49,0.21 -1.35,0.55 -1.92,0.76 -0.58,0.22 -1.37,0.5 -1.77,0.63 -0.41,0.13 -1.09,0.34 -1.52,0.46 -0.44,0.13 -1.16,0.32 -1.61,0.44 -0.45,0.11 -1.12,0.27 -1.5,0.35 -0.38,0.08 -1,0.2 -1.38,0.27 -0.38,0.07 -1.06,0.18 -1.52,0.25 -0.46,0.07 -1.18,0.16 -1.61,0.21 -0.42,0.05 -1.12,0.11 -1.54,0.15 -0.42,0.03 -1.4,0.08 -2.18,0.11 -1.09,0.04 -1.71,0.04 -2.77,0 -0.75,-0.03 -1.61,-0.07 -1.91,-0.09 -0.3,-0.03 -0.83,-0.07 -1.19,-0.11 -0.35,-0.03 -0.93,-0.1 -1.29,-0.15 -0.35,-0.04 -1,-0.13 -1.44,-0.2 -0.43,-0.07 -1.26,-0.22 -1.83,-0.34 -0.58,-0.11 -1.55,-0.34 -2.17,-0.49 -0.62,-0.16 -1.53,-0.41 -2.02,-0.56 -0.5,-0.15 -1.12,-0.35 -1.38,-0.44 -0.26,-0.09 -0.76,-0.27 -1.1,-0.39 -0.35,-0.13 -0.98,-0.37 -1.4,-0.54 -0.43,-0.18 -1.02,-0.42 -1.32,-0.56 -0.29,-0.13 -0.82,-0.37 -1.16,-0.53 -0.35,-0.17 -0.93,-0.46 -1.3,-0.65 -0.36,-0.18 -0.95,-0.5 -1.31,-0.69 -0.36,-0.2 -0.95,-0.54 -1.31,-0.76 -0.37,-0.22 -0.99,-0.61 -1.38,-0.87 -0.39,-0.25 -0.92,-0.61 -1.19,-0.79 -0.26,-0.18 -0.77,-0.55 -1.13,-0.81 -0.35,-0.26 -1,-0.76 -1.43,-1.11 -0.44,-0.35 -1.05,-0.86 -1.36,-1.13 -0.31,-0.26 -0.95,-0.85 -1.42,-1.29 -0.48,-0.45 -1.18,-1.14 -1.57,-1.55 -0.38,-0.41 -0.93,-1 -1.2,-1.31 -0.28,-0.31 -0.71,-0.81 -0.97,-1.12 -0.26,-0.31 -0.69,-0.85 -0.97,-1.21 -0.27,-0.35 -0.6,-0.78 -0.72,-0.96 l -0.23,-0.31 0.1,-0.57 c 0.06,-0.3 0.17,-0.85 0.25,-1.2 0.08,-0.36 0.23,-0.96 0.34,-1.34 0.1,-0.38 0.33,-1.13 0.51,-1.67 0.18,-0.54 0.46,-1.31 0.62,-1.71 0.16,-0.4 0.39,-0.93 0.5,-1.18 0.11,-0.26 0.29,-0.65 0.4,-0.87 0.1,-0.22 0.35,-0.7 0.55,-1.08 0.2,-0.38 0.52,-0.96 0.72,-1.29 0.19,-0.33 0.62,-1 0.94,-1.5 0.33,-0.49 0.84,-1.21 1.13,-1.6 0.29,-0.39 0.69,-0.91 0.89,-1.15 0.2,-0.24 0.56,-0.66 0.8,-0.94 0.24,-0.27 0.67,-0.74 0.96,-1.05 0.29,-0.3 0.82,-0.83 1.17,-1.16 0.35,-0.34 0.92,-0.86 1.27,-1.16 0.34,-0.3 0.89,-0.75 1.21,-1.01 0.32,-0.25 0.76,-0.59 0.98,-0.75 0.22,-0.16 0.55,-0.41 0.75,-0.55 0.19,-0.13 0.58,-0.4 0.85,-0.58 0.28,-0.180003 0.79,-0.510003 1.15,-0.730003 0.36,-0.22 0.98,-0.59 1.4,-0.82 0.41,-0.23 1.07,-0.57 1.46,-0.77 0.39,-0.19 1,-0.49 1.36,-0.65 0.36,-0.16 0.92,-0.41 1.25,-0.54 0.33,-0.14 0.93,-0.37 1.33,-0.52 0.4,-0.15 1.07,-0.38 1.5,-0.52 0.42,-0.14 1.03,-0.33 1.35,-0.42 0.32,-0.09 0.96,-0.26 1.42,-0.38 0.46,-0.11 1.26,-0.29 1.77,-0.39 0.52,-0.11 1.26,-0.24 1.64,-0.3 0.49,-0.08 0.71,-0.1 0.73,-0.07 0.02,0.02 0.89,1.42 1.95,3.1 1.64,2.61 1.96,3.100003 2.21,3.360003 0.18,0.18 0.39,0.34 0.55,0.42 0.15,0.08 0.37,0.16 0.5,0.2 0.13,0.03 0.4,0.06 0.6,0.06 0.19,0 0.46,-0.03 0.6,-0.07 0.13,-0.03 0.36,-0.12 0.5,-0.19 0.14,-0.08 0.37,-0.25 0.51,-0.39 0.22,-0.21 0.55,-0.710003 2.23,-3.370003 1.08,-1.72 1.96,-3.14 1.97,-3.15 0.01,0 0.37,0.05 0.8,0.12 0.43,0.07 1.15,0.2 1.6,0.29 0.45,0.09 1.2,0.26 1.67,0.38 0.47,0.12 1.12,0.29 1.44,0.38 0.32,0.09 0.96,0.29 1.42,0.44 0.45,0.15 1.18,0.4 1.6,0.56 0.43,0.16 1.18,0.46 1.67,0.67 0.49,0.21 1.41,0.64 2.04,0.96 0.63,0.31 1.51,0.77 1.94,1.02 0.44,0.25 1.06,0.62 1.38,0.83 0.32,0.2 0.84,0.540003 1.16,0.760003 0.33,0.22 0.88,0.61 1.23,0.88 0.36,0.26 0.89,0.67 1.17,0.9 0.29,0.23 0.82,0.68 1.19,1 0.37,0.32 1.1,1.01 1.63,1.54 0.53,0.53 1.21,1.24 1.5,1.57 0.29,0.33 0.8,0.93 1.13,1.34 0.32,0.41 0.83,1.08 1.13,1.5 0.3,0.42 0.74,1.07 0.98,1.45 0.24,0.38 0.58,0.94 0.76,1.25 0.18,0.31 0.44,0.78 0.58,1.05 0.14,0.26 0.33,0.59 0.43,0.74 0.11,0.15 0.3,0.35 0.45,0.45 0.14,0.11 0.34,0.24 0.46,0.29 0.11,0.05 0.3,0.11 0.42,0.14 0.11,0.03 0.35,0.05 0.54,0.05 0.19,0 0.43,-0.02 0.54,-0.05 0.12,-0.02 0.35,-0.11 0.52,-0.2 0.22,-0.1 0.4,-0.24 0.59,-0.43 0.19,-0.18 0.32,-0.37 0.43,-0.58 0.08,-0.17 0.18,-0.44 0.21,-0.6 0.04,-0.16 0.06,-0.38 0.06,-0.48 0,-0.1 -0.02,-0.31 -0.05,-0.46 -0.04,-0.15 -0.16,-0.47 -0.28,-0.71 -0.12,-0.24 -0.33,-0.64 -0.47,-0.89 -0.14,-0.26 -0.43,-0.76 -0.65,-1.13 -0.21,-0.37 -0.66,-1.08 -0.99,-1.58 -0.33,-0.5 -0.89,-1.29 -1.24,-1.75 -0.35,-0.47 -0.84,-1.1 -1.1,-1.41 -0.25,-0.31 -0.7,-0.83 -0.99,-1.16 -0.3,-0.33 -0.87,-0.94 -1.27,-1.35 -0.4,-0.41 -0.99,-0.99 -1.32,-1.29 -0.32,-0.31 -0.84,-0.780003 -1.16,-1.060003 -0.32,-0.27 -0.83,-0.7 -1.13,-0.93 -0.3,-0.25 -0.83,-0.66 -1.19,-0.92 -0.35,-0.27 -0.92,-0.67 -1.25,-0.9 -0.33,-0.23 -0.91,-0.62 -1.29,-0.86 -0.38,-0.24 -0.96,-0.6 -1.29,-0.79 -0.34,-0.2 -0.87,-0.5 -1.19,-0.68 -0.32,-0.17 -1.06,-0.55 -1.63,-0.83 -0.57,-0.28 -1.34,-0.65 -1.71,-0.81 -0.37,-0.16 -1.07,-0.45 -1.56,-0.65 -0.5,-0.19 -1.25,-0.47 -1.67,-0.62 -0.42,-0.15 -1.11,-0.38 -1.52,-0.5 -0.41,-0.13 -1.06,-0.32 -1.44,-0.42 -0.38,-0.11 -0.97,-0.26 -1.31,-0.34 -0.35,-0.08 -0.98,-0.22 -1.42,-0.32 -0.43,-0.09 -0.8,-0.17 -0.81,-0.18 -0.01,-0.01 0.38,-0.64 0.86,-1.4 0.48,-0.77 0.91,-1.49 0.96,-1.6 0.05,-0.12 0.11,-0.33 0.14,-0.47 0.03,-0.16 0.04,-0.4 0.02,-0.59 -0.01,-0.18 -0.07,-0.45 -0.12,-0.6 -0.06,-0.15 -0.15,-0.36 -0.21,-0.47 -0.07,-0.11 -0.67,-0.73 -1.44,-1.49 -0.73,-0.72 -2.65,-2.61 -4.27,-4.2 -1.63,-1.6 -3.06,-2.97 -3.18,-3.05 -0.13,-0.09 -0.34,-0.2 -0.47,-0.25 -0.13,-0.05 -0.38,-0.11 -0.54,-0.13 -0.23,-0.04 -0.39,-0.04 -0.64,0 -0.25,0.04 -0.45,0.1 -0.7,0.22 l -0.36,0.18 -0.71,0.69 c -0.39,0.38 -2.21,2.17 -4.05,3.96 -1.83,1.8 -3.47,3.41 -3.65,3.59 -0.19,0.2 -0.37,0.43 -0.46,0.61 -0.09,0.17 -0.19,0.43 -0.22,0.58 -0.05,0.21 -0.07,0.4 -0.05,0.67 0.01,0.22 0.05,0.48 0.11,0.63 0.06,0.16 0.43,0.81 0.98,1.68 0.5,0.78 0.9,1.43 0.9,1.44 0,0.01 -0.03,0.02 -0.07,0.02 -0.03,0 -0.42,0.08 -0.86,0.17 -0.44,0.1 -1.13,0.25 -1.53,0.35 -0.4,0.1 -1.03,0.27 -1.4,0.37 -0.37,0.1 -1,0.29 -1.41,0.42 -0.4,0.13 -1.07,0.35 -1.47,0.5 -0.41,0.15 -1.07,0.39 -1.46,0.55 -0.39,0.15 -1.11,0.46 -1.6,0.67 -0.5,0.22 -1.33,0.62 -1.86,0.88 -0.53,0.26 -1.29,0.67 -1.71,0.9 -0.41,0.23 -1.01,0.57 -1.33,0.77 -0.32,0.19 -1.02,0.64 -1.55,0.99 -0.54,0.36 -1.38,0.95 -1.88,1.33 -0.5,0.37 -1.15,0.88 -1.45,1.13 -0.3,0.24 -0.81,0.67 -1.13,0.95 -0.32,0.28 -1.14,1.070003 -1.83,1.760003 -0.69,0.69 -1.44,1.47 -1.67,1.73 -0.24,0.26 -0.64,0.73 -0.9,1.04 -0.25,0.31 -0.76,0.96 -1.12,1.44 -0.36,0.48 -0.86,1.17 -1.1,1.52 -0.24,0.36 -0.58,0.88 -0.76,1.17 -0.18,0.29 -0.53,0.88 -0.78,1.32 -0.25,0.43 -0.66,1.19 -0.91,1.68 -0.24,0.5 -0.59,1.23 -0.77,1.63 -0.18,0.4 -0.46,1.08 -0.63,1.5 -0.16,0.42 -0.42,1.12 -0.56,1.54 -0.14,0.43 -0.27,0.79 -0.29,0.81 -0.01,0.02 -0.23,-0.4 -0.49,-0.92 -0.25,-0.52 -0.61,-1.28 -0.78,-1.68 -0.18,-0.4 -0.5,-1.18 -0.7199997,-1.72 -0.21,-0.55 -0.55,-1.47 -0.74,-2.04 -0.2,-0.58 -0.48,-1.48 -0.63,-1.99 -0.15,-0.52 -0.36,-1.28 -0.46,-1.69 -0.1,-0.42 -0.27,-1.15 -0.37,-1.63 -0.1,-0.48 -0.23,-1.15 -0.29,-1.48 -0.06,-0.33 -0.16,-1 -0.23,-1.48 -0.07,-0.48 -0.16,-1.24 -0.21,-1.69 -0.04,-0.450003 -0.1,-1.060003 -0.12,-1.370003 -0.03,-0.31 -0.06,-0.99 -0.09,-1.51 -0.02,-0.51 -0.04,-1.33 -0.04,-1.81 0,-0.48 0.02,-1.33 0.04,-1.88 0.03,-0.55 0.08,-1.44 0.13,-1.98 0.04,-0.54 0.13,-1.36 0.19,-1.83 0.06,-0.47 0.19,-1.36 0.29,-1.98 l 0.19,-1.13 -0.04,-0.34 c -0.03,-0.18 -0.09,-0.46 -0.15,-0.6 -0.06,-0.15 -0.21,-0.4 -0.33,-0.56 -0.14,-0.19 -0.32,-0.36 -0.51,-0.49 -0.16,-0.11 -0.43,-0.24 -0.61,-0.3 -0.25,-0.08 -0.4,-0.11 -0.71,-0.11 -0.21,0 -0.49,0.03 -0.62,0.07 -0.12,0.03 -0.35,0.12 -0.5,0.19 -0.16,0.09 -0.38,0.25 -0.54,0.41 -0.19,0.19 -0.33,0.38 -0.43,0.59 -0.12,0.24 -0.19,0.47 -0.28,0.92 -0.06,0.33 -0.18,1.05 -0.26,1.6 -0.08,0.55 -0.19,1.34 -0.24,1.77 -0.04,0.42 -0.11,1.1 -0.14,1.5 -0.04,0.4 -0.08,1.17 -0.11,1.71 -0.03,0.62 -0.04,1.72 -0.03,3.04 0.02,1.28 0.05,2.39 0.09,2.9 0.04,0.46 0.1,1.200003 0.15,1.650003 0.05,0.45 0.12,1.1 0.17,1.44 0.05,0.34 0.15,1.02 0.23,1.5 0.08,0.48 0.21,1.21 0.29,1.63 0.08,0.41 0.23,1.12 0.34,1.58 0.1,0.46 0.32,1.3 0.48,1.88 0.15,0.57 0.39,1.4 0.53,1.84 0.14,0.44 0.38,1.15 0.52,1.57 0.15,0.42 0.4,1.09 0.55,1.49 0.15,0.4 0.44,1.11 0.65,1.58 0.2,0.47 0.49,1.13 0.64,1.46 0.15,0.33 0.49,1.03 0.75,1.54 0.26,0.52 0.62,1.21 0.79,1.53 0.18,0.32 0.57,0.99 0.87,1.5 0.3,0.5 0.76,1.25 1.0299997,1.66 0.27,0.42 0.64,0.98 0.84,1.26 0.19,0.27 0.52,0.74 0.74,1.04 0.21,0.3 0.59,0.8 0.84,1.12 0.25,0.33 0.65,0.83 0.9,1.13 0.24,0.3 0.74,0.88 1.1,1.29 0.36,0.42 0.98,1.1 1.38,1.52 0.4,0.43 1.07,1.1 1.48,1.49 0.41,0.39 0.96,0.91 1.23,1.15 0.26,0.24 0.73,0.65 1.04,0.91 0.31,0.27 0.72,0.61 0.9,0.76 0.19,0.15 0.65,0.52 1.02,0.81 0.38,0.29 1.03,0.77 1.46,1.08 0.42,0.3 1.03,0.72 1.34,0.93 0.32,0.21 0.91,0.59 1.32,0.85 0.4,0.25 1.1,0.67 1.55,0.93 0.45,0.26 1.14,0.64 1.54,0.85 0.4,0.22 1.13,0.59 1.61,0.82 0.48,0.23 1.2,0.57 1.6,0.75 0.41,0.17 1.07,0.46 1.48,0.62 0.42,0.17 1.08,0.43 1.48,0.58 0.4,0.15 1.11,0.39 1.57,0.55 0.46,0.15 1.24,0.39 1.75,0.54 0.5,0.15 1.21,0.34 1.56,0.43 0.36,0.1 0.98,0.25 1.38,0.34 0.4,0.09 1.07,0.23 1.48,0.31 0.42,0.08 1.15,0.21 1.63,0.29 0.48,0.08 1.26,0.19 1.73,0.25 0.47,0.06 1.25,0.15 1.73,0.19 0.48,0.05 1.24,0.11 1.68,0.14 0.51,0.03 1.65,0.05 3.01,0.05 1.33,0 2.48,-0.02 2.94,-0.05 0.41,-0.03 1.16,-0.09 1.67,-0.14 0.5,-0.04 1.28,-0.13 1.73,-0.19 0.44,-0.05 1.26,-0.17 1.82,-0.26 0.55,-0.09 1.34,-0.24 1.75,-0.32 0.41,-0.08 1.14,-0.24 1.63,-0.36 0.49,-0.11 1.3,-0.32 1.8,-0.45 0.49,-0.14 1.26,-0.37 1.71,-0.51 0.45,-0.14 1.13,-0.36 1.52,-0.5 0.39,-0.14 1.06,-0.38 1.48,-0.54 0.43,-0.16 1.16,-0.46 1.63,-0.66 0.47,-0.2 1.12,-0.49 1.44,-0.64 0.33,-0.15 1.01,-0.48 1.52,-0.74 0.52,-0.26 1.28,-0.65 1.69,-0.88 0.41,-0.23 0.93,-0.53 1.15,-0.65 0.21,-0.13 0.66,-0.4 1,-0.61 0.33,-0.2 0.92,-0.58 1.31,-0.84 0.39,-0.26 1.02,-0.69 1.4,-0.96 0.38,-0.27 0.96,-0.69 1.29,-0.95 0.33,-0.25 0.84,-0.65 1.13,-0.88 0.28,-0.23 0.78,-0.64 1.1,-0.92 0.32,-0.27 0.79,-0.68 1.04,-0.91 0.26,-0.23 0.79,-0.73 1.19,-1.11 0.4,-0.38 1.06,-1.04 1.46,-1.46 0.4,-0.43 0.95,-1.02 1.21,-1.32 0.27,-0.29 0.68,-0.77 0.92,-1.06 0.25,-0.29 0.66,-0.79 0.92,-1.12 0.27,-0.34 0.73,-0.94 1.02,-1.34 0.3,-0.4 0.75,-1.03 1,-1.4 0.26,-0.36 0.57,-0.83 0.71,-1.04 0.13,-0.2 0.38,-0.6 0.55,-0.87 0.18,-0.28 0.5,-0.81 0.72,-1.19 0.22,-0.38 0.57,-1.01 0.79,-1.39 0.21,-0.39 0.6,-1.15 0.87,-1.69 0.27,-0.54 0.63,-1.31 0.81,-1.7 0.17,-0.39 0.44,-1 0.58,-1.35 0.15,-0.36 0.38,-0.93 0.51,-1.27 0.14,-0.35 0.37,-0.99 0.519996,-1.42 0.16,-0.44 0.39,-1.13 0.52,-1.54 0.13,-0.42 0.33,-1.08 0.44,-1.49 0.11,-0.4 0.28,-1.02 0.37,-1.39 0.09,-0.37 0.24,-0.98 0.32,-1.36 0.09,-0.38 0.23,-1.07 0.32,-1.54 0.09,-0.47 0.23,-1.29 0.31,-1.82 0.08,-0.54 0.19,-1.38 0.25,-1.88 0.06,-0.5 0.13,-1.26 0.16,-1.680003 0.04,-0.42 0.09,-1.22 0.11,-1.77 0.03,-0.64 0.04,-1.69 0.03,-2.9 -0.02,-1.04 -0.05,-2.27 -0.09,-2.73 -0.03,-0.46 -0.08,-1.05 -0.11,-1.32 -0.02,-0.26 -0.08,-0.79 -0.13,-1.18 -0.04,-0.39 -0.14,-1.09 -0.21,-1.56 -0.06,-0.47 -0.18,-1.16 -0.24,-1.53 -0.07,-0.36 -0.19,-0.98 -0.27,-1.35 -0.08,-0.38 -0.23,-1.04 -0.33,-1.46 -0.1,-0.43 -0.31,-1.22 -0.46,-1.77 -0.15,-0.55 -0.43,-1.46 -0.62,-2.04 l -0.35,-1.04 0.18,-0.26 c 0.09,-0.14 0.33,-0.52 0.53,-0.86 0.2,-0.33 0.59,-1.04 0.86,-1.58 0.26,-0.54 0.62,-1.32 0.78,-1.73 0.16,-0.41 0.4,-1.07 0.53,-1.46 0.12,-0.39 0.31,-1.05 0.42,-1.47 0.1,-0.43 0.24,-1.06 0.31,-1.42 0.07,-0.36 0.16,-0.97 0.21,-1.34 0.04,-0.38 0.1,-0.95 0.13,-1.27 0.02,-0.32 0.04,-1.08 0.04,-1.69 0,-0.62 -0.02,-1.38 -0.04,-1.7 -0.03,-0.32 -0.07,-0.81 -0.11,-1.1 -0.03,-0.29 -0.12,-0.85 -0.19,-1.25 -0.07,-0.4 -0.2,-1.07 -0.31,-1.48 -0.1,-0.41 -0.27,-1.03 -0.37,-1.37 -0.11,-0.35 -0.29,-0.87 -0.4,-1.17 -0.11,-0.3 -0.31,-0.8 -0.44,-1.11 -0.13,-0.31 -0.42,-0.93 -0.65,-1.37 -0.22,-0.45 -0.56,-1.07 -0.75,-1.38 -0.18,-0.31 -0.48,-0.78 -0.65,-1.04 -0.179996,-0.27 -0.539996,-0.77 -0.809996,-1.13 -0.27,-0.35 -0.68,-0.87 -0.91,-1.15 -0.24,-0.27 -0.82,-0.88 -1.29,-1.35 -0.47,-0.47 -1.1,-1.06 -1.4,-1.31 -0.3,-0.25 -0.76,-0.62 -1.02,-0.82 -0.27,-0.2 -0.76,-0.55 -1.11,-0.78 -0.34,-0.23 -0.89,-0.57 -1.21,-0.76 -0.32,-0.18 -0.87,-0.49 -1.23,-0.67 -0.35,-0.17 -0.92,-0.44 -1.27,-0.59 -0.34,-0.15 -0.9,-0.38 -1.25,-0.5 -0.34,-0.13 -0.88,-0.31 -1.19,-0.4 -0.31,-0.1 -0.91,-0.26 -1.33,-0.36 -0.43,-0.1 -1.1,-0.24 -1.5,-0.31 -0.41,-0.07 -0.99,-0.16 -1.3,-0.19 -0.31,-0.04 -0.82,-0.08 -1.14,-0.11 -0.32,-0.02 -1.08,-0.04 -1.67,-0.03 z m 195.019996,3.28 v 7.92 h 6.33 v -7.92 z m 144.28,0 v 7.92 h 6.33 v -7.92 z m -395.619996,1.4 c 0.27,-0.01 0.79,0.01 1.17,0.03 0.38,0.02 0.87,0.06 1.09,0.09 0.21,0.02 0.67,0.09 1.02,0.14 0.34,0.06 0.96,0.19 1.38,0.29 0.42,0.11 1.01,0.27 1.33,0.38 0.31,0.1 0.79,0.27 1.05,0.38 0.27,0.1 0.73,0.3 1.03,0.44 0.29,0.14 0.72,0.35 0.96,0.48 0.23,0.12 0.58,0.32 0.77,0.44 0.2,0.12 0.53,0.32 0.73,0.46 0.21,0.14 0.56,0.38 0.77,0.54 0.22,0.16 0.62,0.47 0.88,0.69 0.26,0.22 0.81,0.73 1.21,1.13 0.41,0.4 0.91,0.95 1.13,1.21 0.22,0.27 0.51,0.64 0.65,0.82 0.14,0.19 0.44,0.61 0.65,0.94 0.22,0.33 0.54,0.86 0.72,1.18 0.18,0.32 0.45,0.86 0.61,1.19 0.15,0.34 0.36,0.82 0.46,1.09 0.11,0.26 0.27,0.71 0.36,1 0.09,0.29 0.23,0.77 0.32,1.08 0.08,0.31 0.19,0.8 0.25,1.1 0.05,0.29 0.14,0.8 0.18,1.14 0.05,0.34 0.11,0.94 0.14,1.35 0.03,0.44 0.03,1.08 0.02,1.65 -0.02,0.5 -0.06,1.18 -0.09,1.51 -0.04,0.33 -0.11,0.88 -0.17,1.21 -0.06,0.34 -0.18,0.92 -0.27,1.29 -0.09,0.38 -0.29,1.04 -0.43,1.48 -0.15,0.44 -0.39,1.07 -0.53,1.41 -0.14,0.33 -0.38,0.84 -0.52,1.12 -0.15,0.29 -0.43,0.79 -0.62,1.12 -0.2,0.33 -0.49,0.78 -0.64,1 -0.15,0.22 -0.4,0.56 -0.55,0.76 -0.15,0.19 -0.41,0.52 -0.58,0.73 -0.17,0.21 -0.6,0.66 -0.94,1.01 -0.35,0.36 -0.81,0.8 -1.03,0.99 -0.21,0.19 -0.55,0.46 -0.73,0.61 -0.19,0.16 -0.56,0.43 -0.83,0.62 -0.26,0.19 -0.77,0.52 -1.14,0.74 -0.36,0.22 -0.99,0.56 -1.4,0.76 -0.42,0.2 -1.02,0.47 -1.34,0.6 -0.32,0.12 -0.82,0.3 -1.11,0.4 -0.28,0.09 -0.77,0.23 -1.08,0.31 -0.31,0.08 -0.8,0.2 -1.09,0.25 -0.3,0.06 -0.82,0.15 -1.17,0.19 -0.35,0.05 -0.91,0.1 -1.24,0.13 -0.33,0.02 -0.89,0.04 -1.23,0.04 -0.34,0 -0.91,-0.02 -1.25,-0.04 -0.35,-0.03 -0.85,-0.07 -1.13,-0.11 -0.27,-0.04 -0.76,-0.11 -1.08,-0.17 -0.32,-0.06 -0.87,-0.18 -1.21,-0.26 -0.34,-0.09 -0.87,-0.24 -1.17,-0.34 -0.3,-0.09 -0.77,-0.26 -1.05,-0.37 -0.27,-0.11 -0.77,-0.33 -1.11,-0.48 -0.33,-0.15 -0.9,-0.45 -1.26,-0.65 -0.36,-0.21 -0.84,-0.5 -1.07,-0.65 -0.22,-0.15 -0.63,-0.43 -0.9,-0.63 -0.27,-0.21 -0.66,-0.52 -0.88,-0.7 -0.22,-0.18 -0.69,-0.61 -1.04,-0.96 -0.35,-0.34 -0.8,-0.8 -0.99,-1.02 -0.1899997,-0.22 -0.4599997,-0.55 -0.6099997,-0.74 -0.15,-0.19 -0.43,-0.56 -0.62,-0.82 -0.18,-0.27 -0.52,-0.78 -0.74,-1.14 -0.21,-0.36 -0.56,-0.99 -0.76,-1.41 -0.2,-0.41 -0.47,-1.01 -0.6,-1.33 -0.12,-0.32 -0.31,-0.86 -0.42,-1.19 -0.11,-0.33 -0.27,-0.9 -0.36,-1.27 -0.08,-0.37 -0.21,-0.94 -0.26,-1.28 -0.06,-0.33 -0.14,-0.88 -0.17,-1.21 -0.04,-0.33 -0.08,-1.01 -0.09,-1.51 -0.02,-0.57 -0.01,-1.21 0.02,-1.65 0.03,-0.4 0.09,-1.01 0.13,-1.35 0.05,-0.34 0.13,-0.85 0.19,-1.14 0.06,-0.3 0.17,-0.79 0.25,-1.1 0.08,-0.3 0.22,-0.79 0.32,-1.08 0.09,-0.29 0.28,-0.8 0.42,-1.15 0.14,-0.34 0.36,-0.85 0.49,-1.12 0.13,-0.28 0.37,-0.75 0.54,-1.05 0.17,-0.3 0.48,-0.81 0.69,-1.14 0.22,-0.33 0.51,-0.75 0.65,-0.94 0.14,-0.18 0.44,-0.55 0.65,-0.82 0.2199997,-0.26 0.7499997,-0.82 1.1699997,-1.25 0.43,-0.42 1.05,-0.99 1.39,-1.25 0.33,-0.27 0.83,-0.65 1.1,-0.84 0.28,-0.19 0.77,-0.51 1.08,-0.7 0.31,-0.18 0.86,-0.48 1.23,-0.66 0.36,-0.18 0.88,-0.43 1.15,-0.54 0.28,-0.12 0.67,-0.27 0.88,-0.34 0.2,-0.08 0.58,-0.2 0.83,-0.28 0.25,-0.08 0.72,-0.21 1.04,-0.29 0.32,-0.08 0.91,-0.2 1.3,-0.27 0.39,-0.06 0.89,-0.14 1.12,-0.16 0.23,-0.03 0.66,-0.07 0.96,-0.08 0.3,-0.02 0.76,-0.04 1.02,-0.04 z m 56.3,0 c 0.26,-0.01 0.79,0.01 1.17,0.03 0.37,0.02 0.86,0.06 1.08,0.09 0.22,0.02 0.68,0.09 1.02,0.14 0.35,0.06 0.97,0.19 1.38,0.29 0.42,0.11 1.02,0.27 1.33,0.38 0.31,0.1 0.79,0.27 1.06,0.38 0.27,0.1 0.73,0.3 1.02,0.44 0.3,0.14 0.73,0.35 0.96,0.48 0.23,0.13 0.58,0.32 0.78,0.44 0.19,0.12 0.52,0.32 0.73,0.46 0.2,0.14 0.55,0.38 0.77,0.54 0.22,0.16 0.61,0.47 0.87,0.69 0.27,0.22 0.81,0.73 1.22,1.13 0.4,0.4 0.91,0.95 1.13,1.21 0.21,0.27 0.51,0.64 0.65,0.82 0.14,0.19 0.43,0.61 0.65,0.94 0.21,0.33 0.54,0.86 0.72,1.19 0.18,0.32 0.45,0.85 0.6,1.18 0.15,0.34 0.36,0.82 0.47,1.09 0.1,0.26 0.26,0.71 0.35,1 0.1,0.29 0.24,0.78 0.32,1.08 0.08,0.31 0.19,0.8 0.25,1.1 0.06,0.29 0.14,0.8 0.19,1.14 0.04,0.34 0.1,0.95 0.13,1.35 0.03,0.44 0.04,1.08 0.02,1.65 -0.01,0.5 -0.05,1.18 -0.09,1.51 -0.03,0.33 -0.11,0.88 -0.17,1.21 -0.05,0.34 -0.18,0.92 -0.27,1.29 -0.09,0.38 -0.28,1.04 -0.43,1.48 -0.14,0.44 -0.38,1.07 -0.52,1.41 -0.14,0.33 -0.38,0.84 -0.53,1.12 -0.14,0.29 -0.42,0.79 -0.62,1.12 -0.19,0.33 -0.48,0.78 -0.63,1 -0.16,0.22 -0.4,0.56 -0.55,0.76 -0.15,0.19 -0.41,0.52 -0.59,0.73 -0.17,0.21 -0.59,0.66 -0.94,1.01 -0.34,0.36 -0.8,0.8 -1.02,0.99 -0.22,0.19 -0.55,0.47 -0.74,0.62 -0.19,0.15 -0.56,0.42 -0.82,0.61 -0.27,0.19 -0.78,0.52 -1.14,0.74 -0.36,0.22 -1,0.56 -1.41,0.76 -0.41,0.2 -1.01,0.47 -1.33,0.6 -0.32,0.12 -0.82,0.3 -1.11,0.4 -0.29,0.09 -0.78,0.23 -1.08,0.31 -0.31,0.08 -0.8,0.2 -1.1,0.25 -0.29,0.06 -0.82,0.15 -1.17,0.19 -0.35,0.05 -0.9,0.1 -1.24,0.13 -0.33,0.02 -0.88,0.04 -1.23,0.04 -0.34,0 -0.9,-0.02 -1.25,-0.04 -0.34,-0.03 -0.85,-0.07 -1.12,-0.11 -0.28,-0.03 -0.77,-0.11 -1.09,-0.17 -0.32,-0.06 -0.86,-0.18 -1.21,-0.26 -0.34,-0.09 -0.87,-0.24 -1.16,-0.34 -0.3,-0.09 -0.77,-0.26 -1.05,-0.37 -0.28,-0.11 -0.78,-0.33 -1.11,-0.48 -0.34,-0.15 -0.9,-0.45 -1.26,-0.65 -0.36,-0.21 -0.84,-0.5 -1.07,-0.65 -0.23,-0.15 -0.64,-0.43 -0.91,-0.63 -0.26,-0.21 -0.66,-0.52 -0.88,-0.7 -0.22,-0.18 -0.68,-0.61 -1.04,-0.96 -0.35,-0.34 -0.79,-0.8 -0.98,-1.02 -0.19,-0.22 -0.47,-0.55 -0.62,-0.74 -0.15,-0.19 -0.42,-0.56 -0.61,-0.82 -0.19,-0.27 -0.52,-0.78 -0.74,-1.14 -0.22,-0.36 -0.56,-0.99 -0.76,-1.41 -0.21,-0.41 -0.47,-1.01 -0.6,-1.33 -0.13,-0.32 -0.32,-0.86 -0.42,-1.19 -0.11,-0.33 -0.27,-0.9 -0.36,-1.27 -0.09,-0.37 -0.21,-0.94 -0.27,-1.28 -0.06,-0.33 -0.13,-0.88 -0.17,-1.21 -0.03,-0.33 -0.07,-1.01 -0.09,-1.51 -0.01,-0.57 0,-1.21 0.03,-1.65 0.02,-0.4 0.08,-1.01 0.13,-1.35 0.04,-0.34 0.13,-0.85 0.19,-1.14 0.05,-0.3 0.17,-0.79 0.25,-1.1 0.08,-0.3 0.22,-0.79 0.31,-1.08 0.09,-0.29 0.29,-0.81 0.42,-1.15 0.14,-0.34 0.36,-0.85 0.49,-1.12 0.13,-0.28 0.38,-0.75 0.54,-1.05 0.17,-0.3 0.48,-0.81 0.7,-1.14 0.22,-0.33 0.51,-0.75 0.65,-0.94 0.14,-0.18 0.43,-0.55 0.65,-0.82 0.22,-0.26 0.74,-0.82 1.17,-1.25 0.43,-0.42 1.05,-0.99 1.38,-1.25 0.33,-0.27 0.83,-0.65 1.11,-0.84 0.28,-0.19 0.76,-0.51 1.08,-0.7 0.31,-0.18 0.86,-0.48 1.22,-0.67 0.36,-0.18 0.88,-0.42 1.16,-0.53 0.27,-0.12 0.66,-0.27 0.87,-0.34 0.21,-0.08 0.58,-0.2 0.84,-0.28 0.25,-0.08 0.72,-0.21 1.04,-0.29 0.32,-0.08 0.9,-0.2 1.29,-0.27 0.39,-0.06 0.9,-0.14 1.13,-0.16 0.23,-0.03 0.66,-0.07 0.96,-0.08 0.3,-0.02 0.76,-0.04 1.02,-0.04 z m 73.419996,0.04 v 3.89 l 6.48,8.21 31.25,39.02 h 5.47 v -51.05 h -6.48 v 39.75 l -31.68,-39.82 z m 224.86,0 v 38.88 h 6.48 v -38.88 z m -126.76,1.01 v 12.53 h -5.11 v 4.97 h 5.11 v 25.27 c 0,2.73 0.8,4.68 2.52,5.97 1.66,1.3 3.68,1.88 5.98,1.88 1.01,0 1.94,-0.08 2.88,-0.22 0.94,-0.14 1.8,-0.36 2.59,-0.65 0.79,-0.29 1.51,-0.5 2.16,-0.79 0.58,-0.29 1.08,-0.5 1.51,-0.72 l -1.51,-5.04 c -0.43,0.29 -1.15,0.58 -2.16,1.01 -1.01,0.43 -2.16,0.57 -3.38,0.57 -1.15,0 -2.09,-0.28 -2.88,-0.93 -0.87,-0.58 -1.3,-1.59 -1.37,-3.03 v -23.32 h 8.42 v -4.97 h -8.42 v -12.53 z m -171.469996,3.66 c -0.43,0.01 -0.86,0.01 -0.95,0.02 -0.09,0.01 -0.4,0.05 -0.69,0.08 -0.29,0.03 -0.77,0.11 -1.06,0.17 -0.28,0.05 -0.75,0.17 -1.04,0.25 -0.29,0.07 -0.78,0.24 -1.1,0.35 -0.31,0.12 -0.86,0.35 -1.21,0.52 -0.35,0.17 -0.8,0.41 -1,0.53 -0.2,0.12 -0.55,0.34 -0.78,0.5 -0.24,0.15 -0.62,0.43 -0.86,0.62 -0.24,0.19 -0.55,0.47 -0.7,0.62 -0.15,0.15 -0.34,0.39 -0.41,0.53 -0.07,0.14 -0.16,0.36 -0.2,0.5 -0.03,0.14 -0.07,0.4 -0.07,0.58 0,0.18 0.02,0.44 0.05,0.56 0.03,0.13 0.1,0.32 0.15,0.44 0.05,0.11 0.18,0.32 0.28,0.46 0.1,0.14 0.28,0.32 0.4,0.41 0.11,0.08 0.32,0.21 0.45,0.27 0.13,0.07 0.33,0.14 0.45,0.17 0.11,0.03 0.36,0.05 0.56,0.05 0.2,0 0.47,-0.03 0.6,-0.07 0.13,-0.03 0.33,-0.11 0.44,-0.16 0.11,-0.06 0.33,-0.21 0.49,-0.34 0.16,-0.13 0.48,-0.38 0.71,-0.55 0.22,-0.17 0.59,-0.41 0.8,-0.54 0.21,-0.13 0.56,-0.31 0.77,-0.41 0.21,-0.1 0.57,-0.25 0.79,-0.33 0.22,-0.08 0.58,-0.2 0.81,-0.25 0.23,-0.06 0.65,-0.15 0.93,-0.2 0.43,-0.07 0.7,-0.09 1.44,-0.09 0.68,0 1.04,0.02 1.39,0.07 0.25,0.04 0.68,0.13 0.94,0.2 0.26,0.06 0.66,0.18 0.89,0.27 0.22,0.08 0.65,0.27 0.95,0.41 0.3,0.15 0.74,0.4 0.98,0.56 0.24,0.16 0.59,0.41 0.77,0.56 0.19,0.15 0.51,0.45 0.73,0.66 0.21,0.22 0.53,0.56 0.69,0.77 0.17,0.2 0.42,0.55 0.56,0.77 0.14,0.22 0.39,0.66 0.55,0.98 0.16,0.32 0.37,0.84 0.47,1.16 0.11,0.31 0.24,0.8 0.3,1.08 0.05,0.28 0.12,0.74 0.15,1.01 0.03,0.31 0.04,0.76 0.02,1.17 -0.01,0.37 -0.05,0.85 -0.09,1.08 -0.03,0.23 -0.12,0.64 -0.18,0.91 -0.07,0.26 -0.2,0.67 -0.28,0.89 -0.08,0.23 -0.27,0.66 -0.42,0.96 -0.14,0.3 -0.41,0.77 -0.59,1.04 -0.18,0.27 -0.51,0.71 -0.73,0.96 -0.22,0.26 -0.56,0.61 -0.75,0.78 -0.19,0.17 -0.5,0.42 -0.69,0.57 -0.19,0.14 -0.5,0.35 -0.69,0.47 -0.19,0.12 -0.58,0.33 -0.87,0.47 -0.3,0.15 -0.8,0.35 -1.11,0.45 -0.31,0.11 -0.8,0.24 -1.09,0.3 -0.29,0.05 -0.76,0.12 -1.04,0.15 -0.3,0.03 -0.79,0.04 -1.15,0.03 -0.34,-0.02 -0.82,-0.06 -1.06,-0.09 -0.24,-0.04 -0.66,-0.13 -0.93,-0.2 -0.27,-0.06 -0.67,-0.18 -0.9,-0.27 -0.22,-0.08 -0.63,-0.25 -0.91,-0.38 -0.27,-0.14 -0.65,-0.35 -0.85,-0.47 -0.19,-0.12 -0.53,-0.35 -0.74,-0.51 -0.21,-0.16 -0.55,-0.45 -0.76,-0.64 -0.21,-0.2 -0.53,-0.54 -0.72,-0.76 -0.18,-0.22 -0.48,-0.62 -0.65,-0.89 -0.18,-0.26 -0.43,-0.69 -0.56,-0.95 -0.13,-0.27 -0.31,-0.68 -0.41,-0.93 -0.09,-0.25 -0.22,-0.67 -0.29,-0.94 -0.06,-0.27 -0.15,-0.67 -0.19,-0.88 -0.04,-0.25 -0.08,-0.84 -0.1,-1.57 -0.02,-0.88 -0.05,-1.21 -0.09,-1.33 -0.04,-0.1 -0.12,-0.27 -0.17,-0.39 -0.06,-0.11 -0.19,-0.3 -0.29,-0.41 -0.09,-0.11 -0.27,-0.28 -0.38,-0.37 -0.12,-0.08 -0.31,-0.2 -0.43,-0.25 -0.11,-0.05 -0.31,-0.12 -0.43,-0.15 -0.13,-0.03 -0.38,-0.05 -0.57,-0.05 -0.22,0 -0.44,0.03 -0.63,0.09 -0.15,0.05 -0.4,0.15 -0.53,0.24 -0.14,0.08 -0.34,0.22 -0.43,0.32 -0.1,0.1 -0.25,0.27 -0.32,0.39 -0.08,0.11 -0.2,0.33 -0.26,0.49 -0.08,0.24 -0.11,0.41 -0.14,0.9 -0.03,0.39 -0.03,0.87 0,1.36 0.02,0.41 0.07,0.94 0.11,1.18 0.03,0.25 0.11,0.67 0.16,0.96 0.06,0.28 0.18,0.76 0.27,1.06 0.09,0.31 0.27,0.82 0.39,1.14 0.13,0.32 0.3,0.74 0.4,0.93 0.09,0.2 0.28,0.58 0.44,0.85 0.15,0.27 0.42,0.7 0.59,0.96 0.18,0.27 0.51,0.73 0.75,1.02 0.24,0.3 0.68,0.79 0.97,1.08 0.3,0.3 0.74,0.71 1,0.92 0.25,0.2 0.62,0.49 0.81,0.63 0.2,0.14 0.61,0.41 0.91,0.59 0.3,0.18 0.78,0.44 1.07,0.58 0.29,0.14 0.78,0.36 1.1,0.48 0.31,0.13 0.79,0.29 1.06,0.37 0.28,0.08 0.72,0.19 0.99,0.25 0.27,0.07 0.76,0.15 1.08,0.2 0.52,0.08 0.77,0.1 1.95,0.1 1.2,0 1.43,-0.01 1.96,-0.1 0.34,-0.05 0.86,-0.15 1.17,-0.22 0.31,-0.07 0.82,-0.21 1.13,-0.31 0.31,-0.1 0.79,-0.28 1.07,-0.39 0.28,-0.11 0.73,-0.32 1,-0.46 0.28,-0.13 0.67,-0.35 0.88,-0.48 0.22,-0.13 0.56,-0.34 0.76,-0.48 0.21,-0.14 0.62,-0.45 0.91,-0.68 0.29,-0.23 0.76,-0.66 1.05,-0.95 0.28,-0.28 0.65,-0.68 0.82,-0.87 0.16,-0.2 0.46,-0.58 0.66,-0.86 0.2,-0.27 0.5,-0.73 0.67,-1.02 0.17,-0.29 0.43,-0.75 0.56,-1.04 0.14,-0.28 0.36,-0.77 0.48,-1.09 0.12,-0.31 0.29,-0.79 0.37,-1.07 0.08,-0.27 0.19,-0.71 0.25,-0.97 0.05,-0.26 0.15,-0.75 0.2,-1.08 0.08,-0.53 0.09,-0.78 0.09,-1.88 0.01,-0.83 -0.01,-1.41 -0.05,-1.67 -0.03,-0.22 -0.1,-0.65 -0.16,-0.96 -0.05,-0.31 -0.17,-0.84 -0.26,-1.17 -0.1,-0.34 -0.25,-0.83 -0.34,-1.09 -0.1,-0.26 -0.29,-0.71 -0.42,-1.01 -0.14,-0.3 -0.36,-0.75 -0.5,-1 -0.14,-0.25 -0.41,-0.69 -0.6,-0.98 -0.19,-0.29 -0.51,-0.73 -0.71,-0.98 -0.2,-0.25 -0.62,-0.72 -0.93,-1.04 -0.32,-0.32 -0.72,-0.7 -0.9,-0.86 -0.19,-0.15 -0.55,-0.44 -0.8,-0.63 -0.26,-0.19 -0.66,-0.47 -0.9,-0.62 -0.24,-0.15 -0.69,-0.4 -1.01,-0.57 -0.33,-0.16 -0.82,-0.39 -1.1,-0.51 -0.28,-0.11 -0.72,-0.27 -0.97,-0.35 -0.24,-0.09 -0.67,-0.21 -0.95,-0.28 -0.27,-0.07 -0.77,-0.17 -1.1,-0.22 -0.33,-0.06 -0.82,-0.13 -1.1,-0.15 -0.28,-0.03 -0.86,-0.04 -1.3,-0.04 z m -55.99,0.01 c -0.55,0 -1.18,0 -1.4,0.02 -0.22,0.03 -0.6,0.07 -0.85,0.11 -0.25,0.03 -0.71,0.12 -1.02,0.19 -0.31,0.07 -0.73,0.17 -0.92,0.23 -0.2,0.06 -0.54,0.17 -0.77,0.25 -0.23,0.09 -0.64,0.24 -0.9,0.36 -0.26,0.11 -0.69,0.32 -0.96,0.45 -0.26,0.14 -0.67,0.38 -0.91,0.53 -0.24,0.15 -0.63,0.42 -0.86,0.59 -0.23,0.17 -0.58,0.45 -0.78,0.62 -0.2,0.16 -0.56,0.5 -0.8,0.74 -0.24,0.24 -0.5,0.55 -0.58,0.68 -0.08,0.13 -0.19,0.35 -0.24,0.49 -0.04,0.15 -0.09,0.39 -0.11,0.55 -0.01,0.17 0,0.41 0.03,0.59 0.03,0.19 0.11,0.43 0.21,0.63 0.09,0.18 0.25,0.42 0.35,0.54 0.11,0.11 0.3,0.28 0.44,0.37 0.14,0.09 0.35,0.2 0.47,0.25 0.12,0.05 0.36,0.1 0.53,0.13 0.21,0.03 0.41,0.03 0.59,0 0.16,-0.02 0.39,-0.08 0.52,-0.12 0.13,-0.05 0.33,-0.15 0.45,-0.22 0.11,-0.08 0.43,-0.34 0.69,-0.6 0.26,-0.25 0.61,-0.56 0.77,-0.69 0.16,-0.13 0.46,-0.35 0.67,-0.48 0.2,-0.14 0.57,-0.36 0.81,-0.48 0.24,-0.13 0.66,-0.32 0.93,-0.43 0.28,-0.11 0.75,-0.26 1.05,-0.33 0.3,-0.08 0.76,-0.18 1.03,-0.22 0.35,-0.06 0.71,-0.08 1.35,-0.07 0.64,0 1,0.02 1.33,0.07 0.26,0.04 0.59,0.1 0.73,0.14 0.15,0.03 0.46,0.12 0.69,0.19 0.23,0.07 0.62,0.21 0.88,0.32 0.25,0.11 0.63,0.29 0.83,0.4 0.21,0.11 0.55,0.32 0.77,0.47 0.21,0.15 0.53,0.38 0.71,0.52 0.17,0.14 0.49,0.43 0.7,0.65 0.22,0.21 0.5,0.53 0.65,0.71 0.14,0.17 0.38,0.51 0.54,0.76 0.16,0.24 0.42,0.7 0.58,1.02 0.15,0.32 0.37,0.84 0.47,1.15 0.1,0.32 0.23,0.81 0.29,1.09 0.06,0.28 0.12,0.71 0.15,0.96 0.02,0.25 0.04,0.65 0.04,0.88 0,0.23 -0.02,0.63 -0.04,0.87 -0.03,0.25 -0.08,0.65 -0.13,0.89 -0.04,0.23 -0.14,0.63 -0.21,0.87 -0.07,0.25 -0.21,0.66 -0.31,0.91 -0.1,0.26 -0.28,0.65 -0.4,0.86 -0.11,0.22 -0.35,0.61 -0.51,0.86 -0.17,0.25 -0.49,0.67 -0.71,0.92 -0.22,0.26 -0.55,0.61 -0.74,0.77 -0.19,0.17 -0.5,0.43 -0.69,0.57 -0.19,0.15 -0.5,0.36 -0.69,0.48 -0.19,0.12 -0.59,0.33 -0.88,0.48 -0.3,0.14 -0.77,0.33 -1.05,0.43 -0.27,0.09 -0.62,0.19 -0.77,0.23 -0.15,0.04 -0.49,0.1 -0.75,0.15 -0.26,0.04 -0.79,0.09 -1.17,0.1 -0.42,0.02 -0.88,0.01 -1.19,-0.02 -0.27,-0.03 -0.73,-0.1 -1.01,-0.15 -0.28,-0.06 -0.72,-0.17 -0.98,-0.26 -0.26,-0.08 -0.66,-0.23 -0.89,-0.33 -0.23,-0.1 -0.57,-0.26 -0.77,-0.37 -0.19,-0.11 -0.53,-0.32 -0.75,-0.46 -0.21,-0.14 -0.57,-0.41 -0.79,-0.6 -0.22,-0.18 -0.54,-0.48 -0.71,-0.66 -0.18,-0.18 -0.44,-0.48 -0.58,-0.66 -0.15,-0.18 -0.38,-0.51 -0.53,-0.73 -0.14,-0.22 -0.36,-0.6 -0.49,-0.86 -0.12,-0.25 -0.28,-0.6 -0.35,-0.77 -0.07,-0.17 -0.17,-0.46 -0.23,-0.64 -0.06,-0.18 -0.15,-0.49 -0.19,-0.69 -0.05,-0.19 -0.12,-0.55 -0.15,-0.79 -0.04,-0.24 -0.08,-0.76 -0.1,-1.15 -0.03,-0.52 -0.06,-0.78 -0.13,-0.98 -0.04,-0.15 -0.16,-0.38 -0.24,-0.52 -0.09,-0.14 -0.28,-0.35 -0.42,-0.49 -0.14,-0.13 -0.37,-0.29 -0.52,-0.36 -0.14,-0.07 -0.39,-0.16 -0.55,-0.19 -0.16,-0.03 -0.38,-0.06 -0.48,-0.06 -0.11,0 -0.3,0.02 -0.44,0.04 -0.14,0.03 -0.41,0.12 -0.6,0.21 -0.26,0.13 -0.42,0.24 -0.62,0.45 -0.2,0.19 -0.33,0.37 -0.43,0.59 -0.09,0.17 -0.18,0.42 -0.21,0.55 -0.03,0.17 -0.04,0.49 -0.02,1.1 0.01,0.54 0.05,1.08 0.1,1.42 0.05,0.29 0.14,0.75 0.19,1.02 0.06,0.26 0.17,0.7 0.25,0.98 0.09,0.28 0.24,0.73 0.34,0.99 0.1,0.25 0.27,0.66 0.37,0.9 0.11,0.24 0.33,0.66 0.49,0.95 0.16,0.28 0.43,0.73 0.61,0.99 0.17,0.26 0.48,0.69 0.69,0.95 0.21,0.26 0.54,0.65 0.75,0.87 0.2,0.22 0.58,0.59 0.83,0.82 0.25,0.22 0.64,0.54 0.86,0.71 0.23,0.17 0.61,0.45 0.86,0.61 0.26,0.17 0.71,0.44 1.01,0.6 0.29,0.16 0.78,0.4 1.08,0.53 0.3,0.13 0.84,0.34 1.21,0.46 0.37,0.12 0.92,0.28 1.23,0.35 0.31,0.07 0.83,0.16 1.15,0.21 0.33,0.05 0.91,0.1 1.29,0.13 0.46,0.02 0.96,0.02 1.44,0 0.4,-0.03 0.97,-0.08 1.27,-0.13 0.3,-0.04 0.77,-0.13 1.04,-0.19 0.28,-0.06 0.72,-0.17 0.98,-0.25 0.26,-0.08 0.71,-0.23 1,-0.34 0.29,-0.11 0.87,-0.37 1.29,-0.58 0.43,-0.21 1.06,-0.57 1.4,-0.8 0.35,-0.23 0.78,-0.54 0.98,-0.69 0.19,-0.15 0.55,-0.46 0.8,-0.68 0.24,-0.22 0.6,-0.57 0.79,-0.78 0.2,-0.21 0.49,-0.55 0.66,-0.75 0.16,-0.2 0.43,-0.55 0.58,-0.77 0.16,-0.22 0.4,-0.59 0.54,-0.83 0.14,-0.23 0.38,-0.67 0.53,-0.96 0.15,-0.3 0.35,-0.75 0.45,-1 0.11,-0.25 0.26,-0.68 0.36,-0.97 0.09,-0.29 0.21,-0.72 0.27,-0.95 0.06,-0.24 0.16,-0.7 0.21,-1.03 0.06,-0.32 0.12,-0.84 0.15,-1.14 0.03,-0.36 0.04,-0.92 0.03,-1.57 -0.02,-0.7 -0.05,-1.17 -0.11,-1.58 -0.05,-0.33 -0.14,-0.8 -0.2,-1.06 -0.05,-0.26 -0.16,-0.67 -0.23,-0.92 -0.07,-0.24 -0.22,-0.7 -0.33,-1.01 -0.12,-0.31 -0.34,-0.83 -0.49,-1.15 -0.16,-0.32 -0.39,-0.77 -0.53,-1 -0.13,-0.23 -0.37,-0.61 -0.53,-0.85 -0.17,-0.24 -0.46,-0.64 -0.65,-0.88 -0.19,-0.24 -0.52,-0.61 -0.72,-0.84 -0.21,-0.22 -0.58,-0.58 -0.83,-0.81 -0.26,-0.22 -0.68,-0.57 -0.95,-0.78 -0.27,-0.2 -0.68,-0.49 -0.92,-0.63 -0.23,-0.15 -0.65,-0.4 -0.92,-0.54 -0.28,-0.15 -0.71,-0.36 -0.97,-0.47 -0.26,-0.12 -0.71,-0.3 -1.01,-0.4 -0.3,-0.1 -0.72,-0.24 -0.94,-0.29 -0.22,-0.06 -0.63,-0.16 -0.92,-0.21 -0.28,-0.06 -0.75,-0.14 -1.04,-0.18 -0.31,-0.04 -0.93,-0.07 -1.52,-0.08 z m -0.2,7.78 c -0.17,0 -0.44,0.04 -0.6,0.08 -0.16,0.05 -0.39,0.13 -0.5,0.18 -0.11,0.06 -0.3,0.19 -0.42,0.28 -0.12,0.1 -0.31,0.3 -0.41,0.44 -0.1,0.14 -0.23,0.39 -0.29,0.55 -0.08,0.21 -0.12,0.39 -0.14,0.68 -0.01,0.23 0,0.5 0.03,0.64 0.03,0.13 0.13,0.38 0.21,0.56 0.1,0.19 0.26,0.41 0.39,0.55 0.12,0.12 0.32,0.29 0.45,0.38 0.13,0.08 0.37,0.19 0.53,0.24 0.15,0.05 0.48,0.11 0.72,0.13 0.24,0.02 0.51,0.06 0.59,0.1 0.09,0.03 0.24,0.12 0.35,0.2 0.11,0.07 0.26,0.24 0.35,0.38 0.09,0.14 0.18,0.34 0.21,0.46 0.02,0.12 0.06,0.39 0.08,0.6 0.02,0.2 0.08,0.48 0.13,0.62 0.04,0.13 0.14,0.34 0.22,0.46 0.08,0.11 0.24,0.3 0.37,0.42 0.12,0.12 0.34,0.29 0.5,0.37 0.15,0.08 0.38,0.17 0.52,0.21 0.13,0.03 0.4,0.06 0.6,0.06 0.19,0 0.46,-0.03 0.58,-0.06 0.13,-0.03 0.35,-0.12 0.5,-0.19 0.16,-0.08 0.37,-0.24 0.55,-0.41 0.19,-0.19 0.32,-0.38 0.43,-0.58 0.08,-0.17 0.18,-0.42 0.21,-0.56 0.04,-0.15 0.06,-0.42 0.06,-0.62 0,-0.19 -0.03,-0.54 -0.06,-0.77 -0.03,-0.23 -0.1,-0.56 -0.15,-0.73 -0.04,-0.17 -0.15,-0.48 -0.22,-0.69 -0.08,-0.21 -0.24,-0.54 -0.36,-0.75 -0.12,-0.2 -0.32,-0.51 -0.45,-0.68 -0.12,-0.17 -0.37,-0.46 -0.54,-0.64 -0.17,-0.18 -0.49,-0.46 -0.69,-0.61 -0.21,-0.16 -0.53,-0.38 -0.71,-0.48 -0.19,-0.11 -0.5,-0.26 -0.69,-0.34 -0.2,-0.08 -0.52,-0.19 -0.73,-0.25 -0.2,-0.06 -0.58,-0.13 -0.84,-0.17 -0.27,-0.03 -0.62,-0.06 -0.78,-0.06 z m 56.29,0 c -0.16,0.01 -0.43,0.04 -0.6,0.08 -0.16,0.05 -0.38,0.13 -0.5,0.18 -0.11,0.06 -0.3,0.19 -0.42,0.28 -0.12,0.1 -0.3,0.3 -0.4,0.44 -0.11,0.14 -0.24,0.39 -0.3,0.55 -0.08,0.21 -0.12,0.39 -0.13,0.68 -0.01,0.23 0,0.5 0.03,0.64 0.02,0.13 0.12,0.39 0.21,0.56 0.09,0.19 0.25,0.42 0.38,0.55 0.12,0.12 0.33,0.3 0.46,0.38 0.13,0.08 0.36,0.19 0.52,0.24 0.16,0.05 0.48,0.11 0.72,0.13 0.25,0.02 0.51,0.07 0.6,0.1 0.08,0.04 0.24,0.13 0.34,0.2 0.11,0.07 0.27,0.24 0.36,0.38 0.09,0.14 0.18,0.34 0.2,0.46 0.02,0.12 0.06,0.39 0.08,0.6 0.02,0.2 0.08,0.49 0.13,0.62 0.05,0.14 0.15,0.34 0.23,0.46 0.07,0.11 0.24,0.31 0.36,0.43 0.12,0.12 0.35,0.28 0.5,0.36 0.15,0.08 0.39,0.17 0.52,0.21 0.13,0.03 0.4,0.06 0.6,0.06 0.2,0 0.46,-0.03 0.58,-0.06 0.13,-0.03 0.35,-0.12 0.5,-0.19 0.16,-0.08 0.38,-0.24 0.55,-0.41 0.19,-0.19 0.33,-0.38 0.43,-0.58 0.09,-0.17 0.18,-0.42 0.22,-0.56 0.03,-0.15 0.06,-0.42 0.06,-0.62 0,-0.19 -0.03,-0.54 -0.06,-0.77 -0.04,-0.23 -0.11,-0.56 -0.15,-0.73 -0.05,-0.17 -0.15,-0.48 -0.23,-0.69 -0.08,-0.2 -0.24,-0.54 -0.36,-0.75 -0.12,-0.2 -0.32,-0.51 -0.44,-0.68 -0.13,-0.17 -0.37,-0.46 -0.55,-0.64 -0.17,-0.18 -0.48,-0.46 -0.69,-0.61 -0.21,-0.16 -0.53,-0.38 -0.71,-0.48 -0.19,-0.11 -0.5,-0.26 -0.69,-0.34 -0.2,-0.08 -0.52,-0.19 -0.72,-0.25 -0.21,-0.06 -0.59,-0.13 -0.85,-0.17 -0.26,-0.03 -0.61,-0.06 -0.78,-0.06 z m 143.379996,0.43 c -2.81,0 -5.4,0.58 -7.7,1.58 -2.31,1.08 -4.32,2.52 -5.98,4.25 -1.66,1.8 -2.95,3.89 -3.89,6.19 -0.93,2.38 -1.37,4.9 -1.37,7.49 0,2.59 0.44,5.11 1.37,7.42 0.87,2.37 2.16,4.46 3.82,6.19 1.65,1.8 3.67,3.24 5.97,4.25 2.31,1.08 4.9,1.58 7.78,1.58 2.81,0 5.4,-0.5 7.71,-1.58 2.3,-1.01 4.31,-2.45 6.04,-4.25 1.66,-1.73 2.95,-3.82 3.89,-6.19 0.86,-2.31 1.37,-4.83 1.37,-7.42 0,-2.59 -0.51,-5.11 -1.44,-7.49 -0.94,-2.3 -2.23,-4.39 -3.89,-6.19 -1.66,-1.73 -3.67,-3.17 -5.97,-4.25 -2.38,-1 -4.97,-1.58 -7.71,-1.58 z m 84.52,0 c -2.81,0 -5.4,0.58 -7.71,1.58 -2.3,1.08 -4.32,2.52 -5.97,4.25 -1.66,1.8 -2.96,3.89 -3.89,6.19 -0.94,2.38 -1.37,4.9 -1.37,7.49 0,2.59 0.43,5.11 1.37,7.42 0.86,2.37 2.16,4.46 3.81,6.19 1.66,1.8 3.68,3.24 5.98,4.25 2.3,1.08 4.9,1.58 7.78,1.58 2.8,0 5.4,-0.5 7.7,-1.58 2.3,-1.01 4.32,-2.45 6.05,-4.25 1.65,-1.73 2.95,-3.82 3.89,-6.19 0.86,-2.31 1.36,-4.83 1.36,-7.42 0,-2.59 -0.5,-5.11 -1.44,-7.49 -0.93,-2.3 -2.23,-4.39 -3.88,-6.19 -1.66,-1.73 -3.68,-3.17 -5.98,-4.25 -2.38,-1 -4.97,-1.58 -7.7,-1.58 z m 48.14,0 c -3.32,0 -6.41,0.79 -9.22,2.38 -2.81,1.58 -4.97,3.74 -6.41,6.33 v -8.06 h -5.76 v 37.58 h 6.34 v -22.68 c 0.43,-1.44 1.08,-2.73 1.94,-3.96 0.86,-1.15 1.87,-2.23 3.03,-3.09 1.15,-0.87 2.37,-1.52 3.67,-2.02 1.29,-0.5 2.59,-0.79 3.88,-0.79 2.45,0 4.33,0.93 5.55,2.73 1.22,1.88 1.87,4.76 1.87,8.79 v 21.02 h 6.34 v -22.46 c 0,-2.23 -0.22,-4.32 -0.58,-6.27 -0.36,-1.87 -0.93,-3.52 -1.8,-4.96 -0.86,-1.44 -2.01,-2.52 -3.45,-3.32 -1.44,-0.79 -3.24,-1.22 -5.4,-1.22 z m 101.11,0 c -3.32,0 -6.41,0.79 -9.22,2.38 -2.81,1.58 -4.97,3.74 -6.41,6.33 v -8.06 h -5.76 v 37.58 h 6.34 v -22.68 c 0.43,-1.44 1.08,-2.73 1.94,-3.96 0.86,-1.15 1.87,-2.23 3.03,-3.09 1.15,-0.87 2.37,-1.52 3.67,-2.02 1.29,-0.5 2.59,-0.79 3.88,-0.79 2.45,0 4.33,0.93 5.55,2.73 1.22,1.88 1.87,4.76 1.87,8.79 v 21.02 h 6.34 v -22.46 c 0,-2.23 -0.22,-4.32 -0.58,-6.27 -0.36,-1.87 -0.93,-3.52 -1.8,-4.96 -0.86,-1.44 -2.01,-2.52 -3.45,-3.32 -1.44,-0.79 -3.24,-1.22 -5.4,-1.22 z m 36.13,0 c -2.59,0 -4.97,0.58 -7.13,1.58 -2.16,1.01 -3.96,2.45 -5.47,4.18 -1.59,1.8 -2.74,3.89 -3.6,6.26 -0.87,2.38 -1.23,4.9 -1.23,7.49 0,2.52 0.36,4.9 1.23,7.2 0.86,2.31 2.01,4.39 3.6,6.12 1.51,1.8 3.31,3.24 5.47,4.25 2.16,1.08 4.46,1.58 7.06,1.58 1.29,0 2.66,-0.14 3.96,-0.5 1.29,-0.29 2.52,-0.79 3.67,-1.44 1.15,-0.65 2.16,-1.44 3.16,-2.38 1.01,-0.93 1.88,-2.01 2.6,-3.16 v 6.62 c 0,2.02 -0.36,3.670003 -1.08,5.110003 -0.72,1.44 -1.59,2.67 -2.74,3.6 -1.15,1.01 -2.52,1.73 -4.1,2.16 -1.59,0.51 -3.17,0.72 -4.9,0.72 -2.73,0 -5.33,-0.5 -7.63,-1.65 -2.38,-1.08 -4.32,-2.74 -5.76,-4.97 l -3.67,3.24 c 1.73,2.59 3.96,4.68 6.62,6.12 2.66,1.44 6.12,2.16 10.44,2.16 2.59,0 5.11,-0.36 7.42,-1.08 2.3,-0.72 4.39,-1.73 6.12,-3.17 1.73,-1.37 3.09,-3.1 4.1,-5.11 1.01,-2.02 1.51,-4.39 1.51,-7.130003 v -37.15 h -5.61 v 7.49 c -1.59,-2.31 -3.53,-4.25 -5.83,-5.83 -2.31,-1.52 -5.04,-2.31 -8.21,-2.31 z m 46.22,0 c -2.8,0 -5.39,0.58 -7.7,1.58 -2.3,1.08 -4.32,2.52 -5.97,4.25 -1.66,1.8 -2.96,3.89 -3.89,6.19 -0.94,2.38 -1.37,4.9 -1.37,7.49 0,2.59 0.43,5.11 1.37,7.42 0.86,2.37 2.16,4.46 3.81,6.19 1.66,1.8 3.68,3.24 5.98,4.25 2.3,1.08 4.89,1.58 7.77,1.58 2.81,0 5.41,-0.5 7.71,-1.58 2.3,-1.01 4.32,-2.45 6.05,-4.25 1.65,-1.73 2.95,-3.82 3.89,-6.19 0.86,-2.31 1.36,-4.83 1.36,-7.42 0,-2.59 -0.5,-5.11 -1.44,-7.49 -0.93,-2.3 -2.23,-4.39 -3.89,-6.19 -1.65,-1.73 -3.67,-3.17 -5.97,-4.25 -2.38,-1 -4.97,-1.58 -7.71,-1.58 z m -264.61,0.65 v 37.58 h 6.33 v -37.58 z m 144.28,0 v 37.58 h 6.33 v -37.58 z m -265.9,0.43 v 37.15 h 6.48 v -28.73 z m 70.11,4.39 c 1.73,0 3.31,0.36 4.82,1.08 1.52,0.72 2.88,1.73 4.04,3.03 1.15,1.29 2.01,2.73 2.66,4.46 0.65,1.73 1.01,3.53 1.01,5.4 0,2.02 -0.36,3.82 -1.01,5.54 -0.65,1.73 -1.51,3.17 -2.66,4.47 -1.16,1.29 -2.52,2.23 -4.04,2.95 -1.51,0.72 -3.09,1.08 -4.82,1.08 -1.73,0 -3.38,-0.36 -4.9,-1.08 -1.51,-0.72 -2.8,-1.66 -3.96,-2.95 -1.15,-1.23 -2.01,-2.67 -2.66,-4.39 -0.65,-1.66 -0.94,-3.46 -0.94,-5.48 0,-1.94 0.29,-3.74 0.94,-5.47 0.65,-1.73 1.51,-3.17 2.66,-4.46 1.16,-1.3 2.45,-2.31 3.96,-3.03 1.52,-0.72 3.17,-1.15 4.9,-1.15 z m 84.52,0 c 1.72,0 3.31,0.36 4.82,1.08 1.51,0.72 2.88,1.73 4.03,3.03 1.15,1.29 2.02,2.73 2.67,4.46 0.64,1.73 1,3.53 1,5.4 0,2.02 -0.36,3.82 -1,5.54 -0.65,1.73 -1.52,3.17 -2.67,4.47 -1.15,1.29 -2.52,2.23 -4.03,2.95 -1.51,0.72 -3.1,1.08 -4.82,1.08 -1.73,0 -3.39,-0.36 -4.9,-1.08 -1.51,-0.72 -2.81,-1.66 -3.96,-2.95 -1.15,-1.23 -2.02,-2.67 -2.66,-4.39 -0.65,-1.66 -0.94,-3.46 -0.94,-5.48 0,-1.94 0.29,-3.74 0.94,-5.47 0.64,-1.73 1.51,-3.17 2.66,-4.46 1.15,-1.3 2.45,-2.31 3.96,-3.03 1.51,-0.72 3.17,-1.15 4.9,-1.15 z m 186.67,0 c 1.23,0 2.45,0.22 3.68,0.65 1.22,0.43 2.37,1.08 3.45,1.87 1.01,0.79 1.94,1.73 2.81,2.74 0.86,1.08 1.51,2.23 2.09,3.53 v 10.8 c -0.29,1.08 -0.72,2.08 -1.44,3.09 -0.72,1.01 -1.66,1.95 -2.67,2.74 -1.08,0.79 -2.23,1.44 -3.45,1.87 -1.3,0.5 -2.59,0.72 -3.89,0.72 -1.87,0 -3.53,-0.36 -5.11,-1.08 -1.59,-0.72 -2.88,-1.73 -4.04,-3.02 -1.15,-1.23 -2.08,-2.67 -2.73,-4.4 -0.72,-1.65 -1.01,-3.45 -1.01,-5.32 0,-1.73 0.29,-3.39 0.87,-5.12 0.57,-1.72 1.36,-3.24 2.44,-4.6 1.01,-1.3 2.31,-2.38 3.82,-3.24 1.51,-0.8 3.24,-1.23 5.18,-1.23 z m 44.93,0 c 1.73,0 3.32,0.36 4.83,1.08 1.51,0.72 2.88,1.73 4.03,3.03 1.15,1.29 2.02,2.73 2.66,4.46 0.65,1.73 1.01,3.53 1.01,5.4 0,2.02 -0.36,3.82 -1.01,5.54 -0.64,1.73 -1.51,3.17 -2.66,4.47 -1.15,1.29 -2.52,2.23 -4.03,2.95 -1.51,0.72 -3.1,1.08 -4.83,1.08 -1.72,0 -3.38,-0.36 -4.89,-1.08 -1.51,-0.72 -2.81,-1.66 -3.96,-2.95 -1.15,-1.23 -2.02,-2.67 -2.66,-4.39 -0.65,-1.66 -0.94,-3.46 -0.94,-5.48 0,-1.94 0.29,-3.74 0.94,-5.47 0.64,-1.73 1.51,-3.17 2.66,-4.46 1.15,-1.3 2.45,-2.31 3.96,-3.03 1.51,-0.72 3.17,-1.15 4.89,-1.15 z m -487.669996,15.41 c 0.02,0 1.2,1.14 2.61,2.52 1.42,1.39 2.58,2.54 2.58,2.56 0,0.02 -1.17,1.88 -2.59,4.15 -1.42,2.26 -2.6,4.11 -2.61,4.1 -0.02,0 -1.2,-1.86 -2.63,-4.13 l -2.59,-4.12 0.37,-0.37 c 0.21,-0.2 1.37,-1.34 2.6,-2.54 1.22,-1.19 2.24,-2.17 2.26,-2.17 z m 326.299996,11.59 v 5.76 h 34.99 v -5.76 z M 10.199994,142.13 c -0.19,0 -0.4499997,0.03 -0.5899997,0.07 -0.14,0.04 -0.37,0.14 -0.51,0.21 -0.14,0.08 -0.36,0.24 -0.48,0.36 -0.12,0.11 -0.29,0.32 -0.37,0.45 -0.09,0.13 -0.2,0.37 -0.25,0.54 -0.08,0.24 -0.1,0.4 -0.1,0.7 v 0.4 l 1.24,4.33 c 0.9599997,3.34 1.2799997,4.41 1.3899997,4.63 0.08,0.15 0.26,0.39 0.39,0.52 0.13,0.14 0.33,0.3 0.44,0.36 0.11,0.06 0.32,0.16 0.46,0.22 0.15,0.05 0.41,0.11 0.57,0.12 0.17,0.01 0.43,0 0.6,-0.03 0.17,-0.02 0.43,-0.11 0.58,-0.18 0.16,-0.08 0.39,-0.22 0.5,-0.31 0.12,-0.1 0.3,-0.29 0.4,-0.43 0.11,-0.15 0.24,-0.4 0.31,-0.56 l 0.12,-0.29 v -0.5 -0.5 l -1.22,-4.28 c -0.68,-2.35 -1.27,-4.36 -1.32,-4.48 -0.05,-0.11 -0.17,-0.3 -0.26,-0.42 -0.09,-0.12 -0.25,-0.29 -0.36,-0.39 -0.12,-0.09 -0.31,-0.23 -0.44,-0.29 -0.13,-0.07 -0.36,-0.15 -0.5,-0.19 -0.13,-0.03 -0.41,-0.06 -0.6,-0.06 z m 8.22,0 c -0.19,0 -0.45,0.03 -0.57,0.06 -0.12,0.03 -0.32,0.11 -0.46,0.18 -0.13,0.07 -0.33,0.2 -0.45,0.3 -0.12,0.09 -0.32,0.31 -0.43,0.48 -0.12,0.18 -0.25,0.45 -0.3,0.62 -0.08,0.23 -0.1,0.39 -0.1,0.71 l 0.01,0.42 1.24,4.31 c 0.68,2.38 1.28,4.42 1.34,4.53 0.06,0.11 0.18,0.31 0.27,0.43 0.09,0.12 0.26,0.29 0.39,0.38 0.12,0.09 0.34,0.22 0.49,0.29 0.15,0.07 0.4,0.15 0.56,0.18 0.16,0.02 0.41,0.03 0.58,0.02 0.17,-0.01 0.42,-0.07 0.57,-0.12 0.15,-0.06 0.36,-0.16 0.47,-0.22 0.11,-0.06 0.31,-0.22 0.44,-0.36 0.13,-0.13 0.3,-0.37 0.39,-0.53 0.08,-0.16 0.18,-0.42 0.22,-0.58 0.04,-0.19 0.06,-0.39 0.04,-0.64 -0.01,-0.3 -0.19,-0.95 -1.23,-4.61 -0.93,-3.24 -1.25,-4.33 -1.38,-4.59 -0.13,-0.26 -0.23,-0.4 -0.46,-0.61 -0.16,-0.15 -0.4,-0.33 -0.55,-0.4 -0.15,-0.07 -0.37,-0.16 -0.49,-0.19 -0.13,-0.04 -0.39,-0.06 -0.59,-0.06 z m 8.19,0 c -0.18,0 -0.42,0.03 -0.55,0.06 -0.12,0.03 -0.32,0.11 -0.44,0.17 -0.13,0.06 -0.34,0.2 -0.47,0.3 -0.13,0.11 -0.31,0.31 -0.41,0.45 -0.1,0.14 -0.22,0.37 -0.27,0.5 -0.05,0.14 -0.11,0.35 -0.13,0.48 -0.03,0.12 -0.04,0.36 -0.02,0.52 0.01,0.21 0.37,1.5 1.25,4.6 0.79,2.76 1.28,4.42 1.37,4.59 0.08,0.17 0.23,0.37 0.4,0.54 0.17,0.17 0.4,0.34 0.58,0.43 0.16,0.09 0.41,0.18 0.56,0.22 0.15,0.03 0.38,0.06 0.52,0.06 0.14,0 0.39,-0.03 0.57,-0.08 0.17,-0.04 0.4,-0.12 0.5,-0.17 0.1,-0.05 0.26,-0.16 0.37,-0.24 0.1,-0.08 0.24,-0.22 0.31,-0.3 0.07,-0.08 0.19,-0.24 0.26,-0.35 0.07,-0.11 0.17,-0.33 0.22,-0.48 0.08,-0.21 0.1,-0.37 0.1,-0.71 v -0.44 l -1.24,-4.34 c -0.86,-2.99 -1.29,-4.41 -1.38,-4.58 -0.07,-0.14 -0.26,-0.39 -0.42,-0.55 -0.22,-0.22 -0.38,-0.34 -0.61,-0.44 -0.17,-0.09 -0.41,-0.17 -0.53,-0.2 -0.12,-0.02 -0.37,-0.04 -0.54,-0.04 z m 68.04,0 c -0.2,0 -0.46,0.03 -0.6,0.08 -0.14,0.04 -0.35,0.12 -0.46,0.17 -0.12,0.06 -0.3,0.19 -0.41,0.28 -0.11,0.09 -0.28,0.27 -0.37,0.39 -0.09,0.12 -0.21,0.32 -0.27,0.43 -0.05,0.12 -0.64,2.13 -1.31,4.48 -1.07,3.75 -1.22,4.32 -1.24,4.64 -0.01,0.19 0,0.46 0.03,0.59 0.03,0.13 0.13,0.39 0.22,0.58 0.12,0.23 0.25,0.42 0.43,0.59 0.14,0.14 0.37,0.32 0.5,0.39 0.14,0.07 0.35,0.16 0.48,0.2 0.17,0.06 0.35,0.08 0.67,0.08 0.31,0 0.5,-0.02 0.66,-0.08 0.13,-0.04 0.35,-0.13 0.48,-0.2 0.14,-0.08 0.37,-0.25 0.51,-0.39 0.14,-0.14 0.31,-0.38 0.4,-0.54 0.12,-0.23 0.43,-1.28 1.39,-4.63 l 1.24,-4.33 v -0.4 c 0,-0.3 -0.02,-0.46 -0.09,-0.7 -0.06,-0.17 -0.17,-0.42 -0.26,-0.56 -0.09,-0.13 -0.26,-0.34 -0.38,-0.45 -0.11,-0.11 -0.33,-0.27 -0.49,-0.35 -0.15,-0.08 -0.39,-0.18 -0.53,-0.21 -0.13,-0.04 -0.4,-0.06 -0.6,-0.06 z m -8.11,0.01 c -0.35,-0.01 -0.52,0 -0.71,0.06 -0.14,0.04 -0.35,0.13 -0.48,0.2 -0.12,0.07 -0.35,0.24 -0.51,0.39 -0.22,0.2 -0.32,0.34 -0.45,0.6 -0.12,0.26 -0.45,1.35 -1.38,4.59 -1.04,3.66 -1.21,4.31 -1.23,4.61 -0.01,0.25 0,0.45 0.05,0.64 0.03,0.16 0.13,0.42 0.21,0.58 0.09,0.16 0.26,0.4 0.4,0.53 0.13,0.14 0.32,0.3 0.43,0.36 0.11,0.06 0.32,0.16 0.47,0.22 0.15,0.05 0.41,0.11 0.57,0.12 0.17,0.01 0.43,0 0.6,-0.03 0.16,-0.02 0.42,-0.11 0.58,-0.18 0.16,-0.08 0.38,-0.22 0.5,-0.31 0.12,-0.09 0.3,-0.29 0.4,-0.44 0.11,-0.14 0.23,-0.36 0.28,-0.48 0.05,-0.13 0.63,-2.13 1.3,-4.46 0.86,-3.02 1.21,-4.31 1.23,-4.53 0.01,-0.2 0,-0.4 -0.04,-0.6 -0.04,-0.17 -0.12,-0.43 -0.19,-0.57 -0.07,-0.14 -0.21,-0.36 -0.31,-0.49 -0.11,-0.13 -0.32,-0.32 -0.48,-0.42 -0.15,-0.1 -0.39,-0.23 -0.53,-0.28 -0.19,-0.07 -0.36,-0.1 -0.71,-0.11 z m -8.21,0 c -0.36,-0.01 -0.52,0 -0.71,0.06 -0.14,0.04 -0.35,0.13 -0.48,0.2 -0.13,0.07 -0.36,0.25 -0.53,0.41 -0.18,0.19 -0.34,0.39 -0.42,0.55 -0.09,0.17 -0.57,1.77 -1.38,4.59 l -1.24,4.33 v 0.44 c 0,0.34 0.02,0.5 0.1,0.72 0.05,0.15 0.17,0.38 0.25,0.52 0.09,0.13 0.23,0.31 0.32,0.4 0.09,0.09 0.28,0.24 0.41,0.33 0.14,0.08 0.37,0.19 0.53,0.24 0.15,0.05 0.42,0.1 0.6,0.11 0.23,0.02 0.43,0 0.62,-0.05 0.16,-0.03 0.42,-0.13 0.59,-0.22 0.18,-0.09 0.4,-0.26 0.57,-0.43 0.17,-0.17 0.32,-0.37 0.41,-0.54 0.08,-0.17 0.58,-1.83 1.36,-4.56 0.85,-2.98 1.24,-4.39 1.26,-4.59 0.01,-0.17 0,-0.43 -0.03,-0.6 -0.03,-0.19 -0.12,-0.43 -0.21,-0.62 -0.09,-0.18 -0.25,-0.42 -0.35,-0.54 -0.1,-0.11 -0.31,-0.29 -0.45,-0.38 -0.15,-0.1 -0.38,-0.22 -0.52,-0.26 -0.18,-0.07 -0.37,-0.1 -0.7,-0.11 z" id="svg_2" stroke="null" transform="translate(28,2)" />
      </g>
   </g>
</svg>
