<?xml version="1.0" standalone="no"?>
<!DOCTYPE svg PUBLIC "-//W3C//DTD SVG 20010904//EN"
 "http://www.w3.org/TR/2001/REC-SVG-20010904/DTD/svg10.dtd">
<svg version="1.0"
  xmlns="http://www.w3.org/2000/svg" width="700.000000pt" height="700.000000pt" viewBox="0 0 700.000000 700.000000" preserveAspectRatio="xMidYMid meet">
  <metadata>
Created by potrace 1.14, written by Peter Selinger 2001-2017
  </metadata>
  <g transform="translate(0.000000,700.000000) scale(0.100000,-0.100000)" fill="#000000" stroke="none">
    <path d="M1729 5598 c-7 -16 -2 -306 6 -323 5 -13 24 -40 42 -62 42 -52 133
-166 288 -363 156 -198 82 -105 530 -665 206 -258 392 -490 413 -514 20 -24
44 -54 52 -65 8 -12 62 -80 120 -151 58 -72 119 -148 135 -169 17 -21 110
-138 208 -260 98 -121 193 -239 210 -262 39 -49 152 -191 175 -219 9 -11 33
-40 52 -65 18 -25 48 -61 65 -80 16 -20 41 -51 55 -69 14 -19 30 -39 35 -45 6
-6 26 -31 45 -56 19 -25 37 -47 40 -50 3 -3 113 -140 245 -305 131 -165 244
-305 250 -311 5 -6 37 -45 70 -88 l60 -76 225 2 225 3 0 2092 c0 1387 -3 2094
-10 2096 -5 1 -125 2 -265 2 l-255 -1 -2 -1623 c-1 -893 -4 -1625 -6 -1627 -3
-3 -173 207 -357 440 -8 10 -27 33 -41 50 -14 17 -32 40 -40 52 -8 11 -30 41
-50 65 -33 39 -64 78 -164 205 -34 42 -319 401 -338 424 -7 8 -196 247 -422
530 -225 283 -411 517 -414 520 -4 3 -28 34 -56 70 -27 36 -57 74 -67 85 -9
11 -54 67 -100 125 -46 58 -171 215 -278 350 -107 135 -200 252 -207 260 -6 8
-24 30 -38 48 l-27 32 -204 0 c-112 0 -205 -1 -205 -2z"/>
    <path d="M1729 4440 c-1 -3 -2 -688 -3 -1523 l-1 -1517 266 0 267 0 0 1180 0
1181 -156 202 c-86 111 -187 243 -224 292 -38 50 -81 105 -96 124 -15 19 -32
41 -39 50 -7 9 -13 14 -14 11z"/>
  </g>
</svg>
